<svg width="210" height="120" viewBox="0 0 210 120" fill="none" xmlns="http://www.w3.org/2000/svg">
<mask id="path-1-outside-1_1_2" maskUnits="userSpaceOnUse" x="-1" y="-1" width="212" height="122" fill="black">
<rect fill="white" x="-1" y="-1" width="212" height="122"/>
<path d="M37.5823 32H30.6623L24.0223 21.2L17.3823 32H10.9023L20.3823 17.28L11.5023 3.44H18.1823L24.3423 13.72L30.3823 3.44H36.9023L27.9423 17.6L37.5823 32ZM52.062 41.6H46.062V32L37.582 10.16H44.142L47.582 20C47.8754 20.8 48.142 21.7333 48.382 22.8C48.622 23.8667 48.8087 24.7333 48.942 25.4H49.182C49.3154 24.7333 49.502 23.8667 49.742 22.8C50.0087 21.7333 50.2754 20.8 50.542 20L54.022 10.16H60.542L52.062 32V41.6ZM69.6308 10.16V18.56H77.9508V10.16H83.9108V32H77.9508V23H69.6308V32H63.6708V10.16H69.6308ZM99.0352 32.4C96.8752 32.4 95.0352 32.0133 93.5152 31.24C91.9952 30.44 90.8352 29.2133 90.0352 27.56C89.2352 25.9067 88.8352 23.7867 88.8352 21.2C88.8352 18.5333 89.2885 16.36 90.1952 14.68C91.1018 13 92.3552 11.76 93.9552 10.96C95.5818 10.16 97.4485 9.76 99.5552 9.76C101.048 9.76 102.342 9.90667 103.435 10.2C104.555 10.4933 105.528 10.84 106.355 11.24L104.595 15.84C103.662 15.4667 102.782 15.16 101.955 14.92C101.155 14.68 100.355 14.56 99.5552 14.56C98.5152 14.56 97.6485 14.8133 96.9552 15.32C96.2618 15.8 95.7418 16.5333 95.3952 17.52C95.0752 18.48 94.9152 19.6933 94.9152 21.16C94.9152 22.6 95.0885 23.8 95.4352 24.76C95.8085 25.6933 96.3418 26.4 97.0352 26.88C97.7285 27.3333 98.5685 27.56 99.5552 27.56C100.808 27.56 101.915 27.4 102.875 27.08C103.835 26.7333 104.768 26.2667 105.675 25.68V30.76C104.768 31.3467 103.808 31.76 102.795 32C101.808 32.2667 100.555 32.4 99.0352 32.4ZM116.662 10.16V18.56H124.982V10.16H130.942V32H124.982V23H116.662V32H110.702V10.16H116.662ZM142.946 18.8C142.946 19.2533 142.92 19.8133 142.866 20.48C142.84 21.1467 142.8 21.8267 142.746 22.52C142.72 23.2133 142.68 23.8267 142.626 24.36C142.573 24.8933 142.533 25.2667 142.506 25.48L152.586 10.16H159.746V32H153.986V23.28C153.986 22.56 154.013 21.7733 154.066 20.92C154.12 20.04 154.173 19.2267 154.226 18.48C154.306 17.7067 154.36 17.12 154.386 16.72L144.346 32H137.186V10.16H142.946V18.8ZM186.895 0.759999C186.762 2.14667 186.375 3.37333 185.735 4.44C185.095 5.48 184.095 6.29333 182.735 6.88C181.375 7.46667 179.549 7.76 177.255 7.76C174.909 7.76 173.069 7.48 171.735 6.92C170.429 6.33333 169.495 5.52 168.935 4.48C168.375 3.44 168.042 2.2 167.935 0.759999H173.255C173.389 2.22667 173.762 3.2 174.375 3.68C174.989 4.16 175.989 4.4 177.375 4.4C178.522 4.4 179.455 4.14666 180.175 3.64C180.922 3.10667 181.362 2.14667 181.495 0.759999H186.895ZM171.735 18.8C171.735 19.2533 171.709 19.8133 171.655 20.48C171.629 21.1467 171.589 21.8267 171.535 22.52C171.509 23.2133 171.469 23.8267 171.415 24.36C171.362 24.8933 171.322 25.2667 171.295 25.48L181.375 10.16H188.535V32H182.775V23.28C182.775 22.56 182.802 21.7733 182.855 20.92C182.909 20.04 182.962 19.2267 183.015 18.48C183.095 17.7067 183.149 17.12 183.175 16.72L173.135 32H165.975V10.16H171.735V18.8ZM47.102 57.68C47.102 59.8933 46.822 61.9067 46.262 63.72C45.7287 65.5067 44.902 67.0533 43.782 68.36C42.6887 69.6667 41.2754 70.6667 39.542 71.36C37.8354 72.0533 35.822 72.4 33.502 72.4C31.182 72.4 29.1554 72.0533 27.422 71.36C25.7154 70.64 24.302 69.64 23.182 68.36C22.0887 67.0533 21.262 65.4933 20.702 63.68C20.1687 61.8667 19.902 59.8533 19.902 57.64C19.902 54.68 20.382 52.1067 21.342 49.92C22.3287 47.7333 23.822 46.04 25.822 44.84C27.8487 43.6133 30.422 43 33.542 43C36.6354 43 39.182 43.6133 41.182 44.84C43.182 46.04 44.662 47.7467 45.622 49.96C46.6087 52.1467 47.102 54.72 47.102 57.68ZM33.502 67.32C34.9954 67.32 36.2487 67.0267 37.262 66.44C38.2754 65.8533 39.062 65 39.622 63.88C40.2087 62.76 40.582 61.4267 40.742 59.88H26.222C26.4087 61.4267 26.782 62.76 27.342 63.88C27.9287 65 28.7287 65.8533 29.742 66.44C30.782 67.0267 32.0354 67.32 33.502 67.32ZM33.542 48.04C32.1287 48.04 30.9154 48.3067 29.902 48.84C28.9154 49.3733 28.1287 50.1467 27.542 51.16C26.9554 52.1733 26.542 53.4 26.302 54.84H40.662C40.342 52.7067 39.6087 51.04 38.462 49.84C37.3154 48.64 35.6754 48.04 33.542 48.04ZM71.7873 50.16V67.64H74.9873V79.84H69.6273V72H54.9473V79.84H49.5873V67.64H51.4273C52.3873 66.1733 53.2007 64.5067 53.8673 62.64C54.534 60.7467 55.0673 58.7333 55.4673 56.6C55.8673 54.4667 56.1607 52.32 56.3473 50.16H71.7873ZM61.3473 54.64C61.134 56.24 60.8673 57.8 60.5473 59.32C60.2273 60.8133 59.8273 62.2533 59.3473 63.64C58.894 65.0267 58.334 66.36 57.6673 67.64H65.8273V54.64H61.3473ZM90.8698 49.76C93.3232 49.76 95.3098 50.72 96.8298 52.64C98.3498 54.5333 99.1098 57.3333 99.1098 61.04C99.1098 63.52 98.7498 65.6133 98.0298 67.32C97.3098 69 96.3232 70.2667 95.0698 71.12C93.8165 71.9733 92.3632 72.4 90.7098 72.4C89.6698 72.4 88.7632 72.2667 87.9898 72C87.2432 71.7333 86.6032 71.3867 86.0698 70.96C85.5365 70.5333 85.0698 70.08 84.6698 69.6H84.3498C84.4565 70.1067 84.5365 70.64 84.5898 71.2C84.6432 71.7333 84.6698 72.2667 84.6698 72.8V81.6H78.7098V50.16H83.5498L84.3898 53H84.6698C85.0698 52.4133 85.5498 51.88 86.1098 51.4C86.6698 50.8933 87.3365 50.4933 88.1098 50.2C88.9098 49.9067 89.8298 49.76 90.8698 49.76ZM88.9498 54.52C87.9098 54.52 87.0832 54.7333 86.4698 55.16C85.8565 55.5867 85.4032 56.24 85.1098 57.12C84.8432 57.9733 84.6965 59.0533 84.6698 60.36V61C84.6698 62.4133 84.8032 63.6133 85.0698 64.6C85.3365 65.56 85.7898 66.2933 86.4298 66.8C87.0698 67.3067 87.9365 67.56 89.0298 67.56C89.9365 67.56 90.6832 67.3067 91.2698 66.8C91.8565 66.2933 92.2965 65.5467 92.5898 64.56C92.8832 63.5733 93.0298 62.3733 93.0298 60.96C93.0298 58.8267 92.6965 57.2267 92.0298 56.16C91.3898 55.0667 90.3632 54.52 88.9498 54.52ZM109.782 58.8C109.782 59.2533 109.756 59.8133 109.702 60.48C109.676 61.1467 109.636 61.8267 109.582 62.52C109.556 63.2133 109.516 63.8267 109.462 64.36C109.409 64.8933 109.369 65.2667 109.342 65.48L119.422 50.16H126.582V72H120.822V63.28C120.822 62.56 120.849 61.7733 120.902 60.92C120.956 60.04 121.009 59.2267 121.062 58.48C121.142 57.7067 121.196 57.12 121.222 56.72L111.182 72H104.022V50.16H109.782V58.8ZM153.731 40.76C153.598 42.1467 153.211 43.3733 152.571 44.44C151.931 45.48 150.931 46.2933 149.571 46.88C148.211 47.4667 146.385 47.76 144.091 47.76C141.745 47.76 139.905 47.48 138.571 46.92C137.265 46.3333 136.331 45.52 135.771 44.48C135.211 43.44 134.878 42.2 134.771 40.76H140.091C140.225 42.2267 140.598 43.2 141.211 43.68C141.825 44.16 142.825 44.4 144.211 44.4C145.358 44.4 146.291 44.1467 147.011 43.64C147.758 43.1067 148.198 42.1467 148.331 40.76H153.731ZM138.571 58.8C138.571 59.2533 138.545 59.8133 138.491 60.48C138.465 61.1467 138.425 61.8267 138.371 62.52C138.345 63.2133 138.305 63.8267 138.251 64.36C138.198 64.8933 138.158 65.2667 138.131 65.48L148.211 50.16H155.371V72H149.611V63.28C149.611 62.56 149.638 61.7733 149.691 60.92C149.745 60.04 149.798 59.2267 149.851 58.48C149.931 57.7067 149.985 57.12 150.011 56.72L139.971 72H132.811V50.16H138.571V58.8ZM167.56 50.16V58.56H175.88V50.16H181.84V72H175.88V63H167.56V72H161.6V50.16H167.56ZM13.8227 112H7.78266V88.48H0.0226563V83.44H21.5827V88.48H13.8227V112ZM29.7655 112.4C28.3788 112.4 27.1388 112.293 26.0455 112.08C24.9788 111.867 23.9788 111.52 23.0455 111.04V106.4C24.0055 106.827 25.0188 107.2 26.0855 107.52C27.1788 107.813 28.2988 107.96 29.4455 107.96C30.3521 107.96 31.1388 107.8 31.8055 107.48C32.4721 107.133 33.0055 106.587 33.4055 105.84C33.8055 105.093 34.0455 104.133 34.1255 102.96H25.8855V99H34.1255C34.0188 97.3733 33.6188 96.16 32.9255 95.36C32.2588 94.56 31.2588 94.16 29.9255 94.16C28.9921 94.16 28.0855 94.2933 27.2055 94.56C26.3521 94.8 25.5655 95.08 24.8455 95.4L23.1655 91.32C24.0188 90.9467 25.0455 90.6 26.2455 90.28C27.4721 89.9333 28.7788 89.76 30.1655 89.76C32.0855 89.76 33.8055 90.0933 35.3255 90.76C36.8455 91.4267 38.0455 92.56 38.9255 94.16C39.8321 95.76 40.2855 97.9867 40.2855 100.84C40.2855 103.453 39.8721 105.627 39.0455 107.36C38.2188 109.067 37.0188 110.333 35.4455 111.16C33.8988 111.987 32.0055 112.4 29.7655 112.4ZM72.7142 90.16V112H67.1542V101.28C67.1542 100.213 67.1676 99.1733 67.1942 98.16C67.2476 97.1467 67.3142 96.2133 67.3942 95.36H67.2742L61.2342 112H56.7542L50.6342 95.32H50.4742C50.5809 96.2 50.6476 97.1467 50.6742 98.16C50.7276 99.1467 50.7542 100.24 50.7542 101.44V112H45.1942V90.16H53.6342L59.0742 104.96L64.5942 90.16H72.7142ZM98.5842 90.16V107.64H101.784V119.84H96.4242V112H81.7442V119.84H76.3842V107.64H78.2242C79.1842 106.173 79.9976 104.507 80.6642 102.64C81.3309 100.747 81.8642 98.7333 82.2642 96.6C82.6642 94.4667 82.9576 92.32 83.1442 90.16H98.5842ZM88.1442 94.64C87.9309 96.24 87.6642 97.8 87.3442 99.32C87.0242 100.813 86.6242 102.253 86.1442 103.64C85.6909 105.027 85.1309 106.36 84.4642 107.64H92.6242V94.64H88.1442ZM110.547 112.4C109.16 112.4 107.92 112.293 106.827 112.08C105.76 111.867 104.76 111.52 103.827 111.04V106.4C104.787 106.827 105.8 107.2 106.867 107.52C107.96 107.813 109.08 107.96 110.227 107.96C111.133 107.96 111.92 107.8 112.587 107.48C113.253 107.133 113.787 106.587 114.187 105.84C114.587 105.093 114.827 104.133 114.907 102.96H106.667V99H114.907C114.8 97.3733 114.4 96.16 113.707 95.36C113.04 94.56 112.04 94.16 110.707 94.16C109.773 94.16 108.867 94.2933 107.987 94.56C107.133 94.8 106.347 95.08 105.627 95.4L103.947 91.32C104.8 90.9467 105.827 90.6 107.027 90.28C108.253 89.9333 109.56 89.76 110.947 89.76C112.867 89.76 114.587 90.0933 116.107 90.76C117.627 91.4267 118.827 92.56 119.707 94.16C120.613 95.76 121.067 97.9867 121.067 100.84C121.067 103.453 120.653 105.627 119.827 107.36C119 109.067 117.8 110.333 116.227 111.16C114.68 111.987 112.787 112.4 110.547 112.4ZM141.055 90.16V94.64H131.935V112H125.975V90.16H141.055ZM163.426 112H157.466V94.64H151.986C151.719 97.84 151.386 100.573 150.986 102.84C150.613 105.08 150.133 106.907 149.546 108.32C148.986 109.733 148.266 110.773 147.386 111.44C146.506 112.08 145.426 112.4 144.146 112.4C143.453 112.4 142.826 112.347 142.266 112.24C141.706 112.133 141.199 111.973 140.746 111.76V107C141.039 107.107 141.346 107.2 141.666 107.28C141.986 107.36 142.319 107.4 142.666 107.4C143.039 107.4 143.386 107.253 143.706 106.96C144.053 106.667 144.373 106.147 144.666 105.4C144.986 104.653 145.279 103.627 145.546 102.32C145.813 101.013 146.053 99.3733 146.266 97.4C146.506 95.4 146.719 92.9867 146.906 90.16H163.426V112ZM174.687 112.4C173.301 112.4 172.061 112.293 170.967 112.08C169.901 111.867 168.901 111.52 167.967 111.04V106.4C168.927 106.827 169.941 107.2 171.007 107.52C172.101 107.813 173.221 107.96 174.367 107.96C175.274 107.96 176.061 107.8 176.727 107.48C177.394 107.133 177.927 106.587 178.327 105.84C178.727 105.093 178.967 104.133 179.047 102.96H170.807V99H179.047C178.941 97.3733 178.541 96.16 177.847 95.36C177.181 94.56 176.181 94.16 174.847 94.16C173.914 94.16 173.007 94.2933 172.127 94.56C171.274 94.8 170.487 95.08 169.767 95.4L168.087 91.32C168.941 90.9467 169.967 90.6 171.167 90.28C172.394 89.9333 173.701 89.76 175.087 89.76C177.007 89.76 178.727 90.0933 180.247 90.76C181.767 91.4267 182.967 92.56 183.847 94.16C184.754 95.76 185.207 97.9867 185.207 100.84C185.207 103.453 184.794 105.627 183.967 107.36C183.141 109.067 181.941 110.333 180.367 111.16C178.821 111.987 176.927 112.4 174.687 112.4ZM209.676 112H203.716V94.64H198.236C197.969 97.84 197.636 100.573 197.236 102.84C196.863 105.08 196.383 106.907 195.796 108.32C195.236 109.733 194.516 110.773 193.636 111.44C192.756 112.08 191.676 112.4 190.396 112.4C189.703 112.4 189.076 112.347 188.516 112.24C187.956 112.133 187.449 111.973 186.996 111.76V107C187.289 107.107 187.596 107.2 187.916 107.28C188.236 107.36 188.569 107.4 188.916 107.4C189.289 107.4 189.636 107.253 189.956 106.96C190.303 106.667 190.623 106.147 190.916 105.4C191.236 104.653 191.529 103.627 191.796 102.32C192.063 101.013 192.303 99.3733 192.516 97.4C192.756 95.4 192.969 92.9867 193.156 90.16H209.676V112Z"/>
</mask>
<path d="M37.5823 32H30.6623L24.0223 21.2L17.3823 32H10.9023L20.3823 17.28L11.5023 3.44H18.1823L24.3423 13.72L30.3823 3.44H36.9023L27.9423 17.6L37.5823 32ZM52.062 41.6H46.062V32L37.582 10.16H44.142L47.582 20C47.8754 20.8 48.142 21.7333 48.382 22.8C48.622 23.8667 48.8087 24.7333 48.942 25.4H49.182C49.3154 24.7333 49.502 23.8667 49.742 22.8C50.0087 21.7333 50.2754 20.8 50.542 20L54.022 10.16H60.542L52.062 32V41.6ZM69.6308 10.16V18.56H77.9508V10.16H83.9108V32H77.9508V23H69.6308V32H63.6708V10.16H69.6308ZM99.0352 32.4C96.8752 32.4 95.0352 32.0133 93.5152 31.24C91.9952 30.44 90.8352 29.2133 90.0352 27.56C89.2352 25.9067 88.8352 23.7867 88.8352 21.2C88.8352 18.5333 89.2885 16.36 90.1952 14.68C91.1018 13 92.3552 11.76 93.9552 10.96C95.5818 10.16 97.4485 9.76 99.5552 9.76C101.048 9.76 102.342 9.90667 103.435 10.2C104.555 10.4933 105.528 10.84 106.355 11.24L104.595 15.84C103.662 15.4667 102.782 15.16 101.955 14.92C101.155 14.68 100.355 14.56 99.5552 14.56C98.5152 14.56 97.6485 14.8133 96.9552 15.32C96.2618 15.8 95.7418 16.5333 95.3952 17.52C95.0752 18.48 94.9152 19.6933 94.9152 21.16C94.9152 22.6 95.0885 23.8 95.4352 24.76C95.8085 25.6933 96.3418 26.4 97.0352 26.88C97.7285 27.3333 98.5685 27.56 99.5552 27.56C100.808 27.56 101.915 27.4 102.875 27.08C103.835 26.7333 104.768 26.2667 105.675 25.68V30.76C104.768 31.3467 103.808 31.76 102.795 32C101.808 32.2667 100.555 32.4 99.0352 32.4ZM116.662 10.16V18.56H124.982V10.16H130.942V32H124.982V23H116.662V32H110.702V10.16H116.662ZM142.946 18.8C142.946 19.2533 142.92 19.8133 142.866 20.48C142.84 21.1467 142.8 21.8267 142.746 22.52C142.72 23.2133 142.68 23.8267 142.626 24.36C142.573 24.8933 142.533 25.2667 142.506 25.48L152.586 10.16H159.746V32H153.986V23.28C153.986 22.56 154.013 21.7733 154.066 20.92C154.12 20.04 154.173 19.2267 154.226 18.48C154.306 17.7067 154.36 17.12 154.386 16.72L144.346 32H137.186V10.16H142.946V18.8ZM186.895 0.759999C186.762 2.14667 186.375 3.37333 185.735 4.44C185.095 5.48 184.095 6.29333 182.735 6.88C181.375 7.46667 179.549 7.76 177.255 7.76C174.909 7.76 173.069 7.48 171.735 6.92C170.429 6.33333 169.495 5.52 168.935 4.48C168.375 3.44 168.042 2.2 167.935 0.759999H173.255C173.389 2.22667 173.762 3.2 174.375 3.68C174.989 4.16 175.989 4.4 177.375 4.4C178.522 4.4 179.455 4.14666 180.175 3.64C180.922 3.10667 181.362 2.14667 181.495 0.759999H186.895ZM171.735 18.8C171.735 19.2533 171.709 19.8133 171.655 20.48C171.629 21.1467 171.589 21.8267 171.535 22.52C171.509 23.2133 171.469 23.8267 171.415 24.36C171.362 24.8933 171.322 25.2667 171.295 25.48L181.375 10.16H188.535V32H182.775V23.28C182.775 22.56 182.802 21.7733 182.855 20.92C182.909 20.04 182.962 19.2267 183.015 18.48C183.095 17.7067 183.149 17.12 183.175 16.72L173.135 32H165.975V10.16H171.735V18.8ZM47.102 57.68C47.102 59.8933 46.822 61.9067 46.262 63.72C45.7287 65.5067 44.902 67.0533 43.782 68.36C42.6887 69.6667 41.2754 70.6667 39.542 71.36C37.8354 72.0533 35.822 72.4 33.502 72.4C31.182 72.4 29.1554 72.0533 27.422 71.36C25.7154 70.64 24.302 69.64 23.182 68.36C22.0887 67.0533 21.262 65.4933 20.702 63.68C20.1687 61.8667 19.902 59.8533 19.902 57.64C19.902 54.68 20.382 52.1067 21.342 49.92C22.3287 47.7333 23.822 46.04 25.822 44.84C27.8487 43.6133 30.422 43 33.542 43C36.6354 43 39.182 43.6133 41.182 44.84C43.182 46.04 44.662 47.7467 45.622 49.96C46.6087 52.1467 47.102 54.72 47.102 57.68ZM33.502 67.32C34.9954 67.32 36.2487 67.0267 37.262 66.44C38.2754 65.8533 39.062 65 39.622 63.88C40.2087 62.76 40.582 61.4267 40.742 59.88H26.222C26.4087 61.4267 26.782 62.76 27.342 63.88C27.9287 65 28.7287 65.8533 29.742 66.44C30.782 67.0267 32.0354 67.32 33.502 67.32ZM33.542 48.04C32.1287 48.04 30.9154 48.3067 29.902 48.84C28.9154 49.3733 28.1287 50.1467 27.542 51.16C26.9554 52.1733 26.542 53.4 26.302 54.84H40.662C40.342 52.7067 39.6087 51.04 38.462 49.84C37.3154 48.64 35.6754 48.04 33.542 48.04ZM71.7873 50.16V67.64H74.9873V79.84H69.6273V72H54.9473V79.84H49.5873V67.64H51.4273C52.3873 66.1733 53.2007 64.5067 53.8673 62.64C54.534 60.7467 55.0673 58.7333 55.4673 56.6C55.8673 54.4667 56.1607 52.32 56.3473 50.16H71.7873ZM61.3473 54.64C61.134 56.24 60.8673 57.8 60.5473 59.32C60.2273 60.8133 59.8273 62.2533 59.3473 63.64C58.894 65.0267 58.334 66.36 57.6673 67.64H65.8273V54.64H61.3473ZM90.8698 49.76C93.3232 49.76 95.3098 50.72 96.8298 52.64C98.3498 54.5333 99.1098 57.3333 99.1098 61.04C99.1098 63.52 98.7498 65.6133 98.0298 67.32C97.3098 69 96.3232 70.2667 95.0698 71.12C93.8165 71.9733 92.3632 72.4 90.7098 72.4C89.6698 72.4 88.7632 72.2667 87.9898 72C87.2432 71.7333 86.6032 71.3867 86.0698 70.96C85.5365 70.5333 85.0698 70.08 84.6698 69.6H84.3498C84.4565 70.1067 84.5365 70.64 84.5898 71.2C84.6432 71.7333 84.6698 72.2667 84.6698 72.8V81.6H78.7098V50.16H83.5498L84.3898 53H84.6698C85.0698 52.4133 85.5498 51.88 86.1098 51.4C86.6698 50.8933 87.3365 50.4933 88.1098 50.2C88.9098 49.9067 89.8298 49.76 90.8698 49.76ZM88.9498 54.52C87.9098 54.52 87.0832 54.7333 86.4698 55.16C85.8565 55.5867 85.4032 56.24 85.1098 57.12C84.8432 57.9733 84.6965 59.0533 84.6698 60.36V61C84.6698 62.4133 84.8032 63.6133 85.0698 64.6C85.3365 65.56 85.7898 66.2933 86.4298 66.8C87.0698 67.3067 87.9365 67.56 89.0298 67.56C89.9365 67.56 90.6832 67.3067 91.2698 66.8C91.8565 66.2933 92.2965 65.5467 92.5898 64.56C92.8832 63.5733 93.0298 62.3733 93.0298 60.96C93.0298 58.8267 92.6965 57.2267 92.0298 56.16C91.3898 55.0667 90.3632 54.52 88.9498 54.52ZM109.782 58.8C109.782 59.2533 109.756 59.8133 109.702 60.48C109.676 61.1467 109.636 61.8267 109.582 62.52C109.556 63.2133 109.516 63.8267 109.462 64.36C109.409 64.8933 109.369 65.2667 109.342 65.48L119.422 50.16H126.582V72H120.822V63.28C120.822 62.56 120.849 61.7733 120.902 60.92C120.956 60.04 121.009 59.2267 121.062 58.48C121.142 57.7067 121.196 57.12 121.222 56.72L111.182 72H104.022V50.16H109.782V58.8ZM153.731 40.76C153.598 42.1467 153.211 43.3733 152.571 44.44C151.931 45.48 150.931 46.2933 149.571 46.88C148.211 47.4667 146.385 47.76 144.091 47.76C141.745 47.76 139.905 47.48 138.571 46.92C137.265 46.3333 136.331 45.52 135.771 44.48C135.211 43.44 134.878 42.2 134.771 40.76H140.091C140.225 42.2267 140.598 43.2 141.211 43.68C141.825 44.16 142.825 44.4 144.211 44.4C145.358 44.4 146.291 44.1467 147.011 43.64C147.758 43.1067 148.198 42.1467 148.331 40.76H153.731ZM138.571 58.8C138.571 59.2533 138.545 59.8133 138.491 60.48C138.465 61.1467 138.425 61.8267 138.371 62.52C138.345 63.2133 138.305 63.8267 138.251 64.36C138.198 64.8933 138.158 65.2667 138.131 65.48L148.211 50.16H155.371V72H149.611V63.28C149.611 62.56 149.638 61.7733 149.691 60.92C149.745 60.04 149.798 59.2267 149.851 58.48C149.931 57.7067 149.985 57.12 150.011 56.72L139.971 72H132.811V50.16H138.571V58.8ZM167.56 50.16V58.56H175.88V50.16H181.84V72H175.88V63H167.56V72H161.6V50.16H167.56ZM13.8227 112H7.78266V88.48H0.0226563V83.44H21.5827V88.48H13.8227V112ZM29.7655 112.4C28.3788 112.4 27.1388 112.293 26.0455 112.08C24.9788 111.867 23.9788 111.52 23.0455 111.04V106.4C24.0055 106.827 25.0188 107.2 26.0855 107.52C27.1788 107.813 28.2988 107.96 29.4455 107.96C30.3521 107.96 31.1388 107.8 31.8055 107.48C32.4721 107.133 33.0055 106.587 33.4055 105.84C33.8055 105.093 34.0455 104.133 34.1255 102.96H25.8855V99H34.1255C34.0188 97.3733 33.6188 96.16 32.9255 95.36C32.2588 94.56 31.2588 94.16 29.9255 94.16C28.9921 94.16 28.0855 94.2933 27.2055 94.56C26.3521 94.8 25.5655 95.08 24.8455 95.4L23.1655 91.32C24.0188 90.9467 25.0455 90.6 26.2455 90.28C27.4721 89.9333 28.7788 89.76 30.1655 89.76C32.0855 89.76 33.8055 90.0933 35.3255 90.76C36.8455 91.4267 38.0455 92.56 38.9255 94.16C39.8321 95.76 40.2855 97.9867 40.2855 100.84C40.2855 103.453 39.8721 105.627 39.0455 107.36C38.2188 109.067 37.0188 110.333 35.4455 111.16C33.8988 111.987 32.0055 112.4 29.7655 112.4ZM72.7142 90.16V112H67.1542V101.28C67.1542 100.213 67.1676 99.1733 67.1942 98.16C67.2476 97.1467 67.3142 96.2133 67.3942 95.36H67.2742L61.2342 112H56.7542L50.6342 95.32H50.4742C50.5809 96.2 50.6476 97.1467 50.6742 98.16C50.7276 99.1467 50.7542 100.24 50.7542 101.44V112H45.1942V90.16H53.6342L59.0742 104.96L64.5942 90.16H72.7142ZM98.5842 90.16V107.64H101.784V119.84H96.4242V112H81.7442V119.84H76.3842V107.64H78.2242C79.1842 106.173 79.9976 104.507 80.6642 102.64C81.3309 100.747 81.8642 98.7333 82.2642 96.6C82.6642 94.4667 82.9576 92.32 83.1442 90.16H98.5842ZM88.1442 94.64C87.9309 96.24 87.6642 97.8 87.3442 99.32C87.0242 100.813 86.6242 102.253 86.1442 103.64C85.6909 105.027 85.1309 106.36 84.4642 107.64H92.6242V94.64H88.1442ZM110.547 112.4C109.16 112.4 107.92 112.293 106.827 112.08C105.76 111.867 104.76 111.52 103.827 111.04V106.4C104.787 106.827 105.8 107.2 106.867 107.52C107.96 107.813 109.08 107.96 110.227 107.96C111.133 107.96 111.92 107.8 112.587 107.48C113.253 107.133 113.787 106.587 114.187 105.84C114.587 105.093 114.827 104.133 114.907 102.96H106.667V99H114.907C114.8 97.3733 114.4 96.16 113.707 95.36C113.04 94.56 112.04 94.16 110.707 94.16C109.773 94.16 108.867 94.2933 107.987 94.56C107.133 94.8 106.347 95.08 105.627 95.4L103.947 91.32C104.8 90.9467 105.827 90.6 107.027 90.28C108.253 89.9333 109.56 89.76 110.947 89.76C112.867 89.76 114.587 90.0933 116.107 90.76C117.627 91.4267 118.827 92.56 119.707 94.16C120.613 95.76 121.067 97.9867 121.067 100.84C121.067 103.453 120.653 105.627 119.827 107.36C119 109.067 117.8 110.333 116.227 111.16C114.68 111.987 112.787 112.4 110.547 112.4ZM141.055 90.16V94.64H131.935V112H125.975V90.16H141.055ZM163.426 112H157.466V94.64H151.986C151.719 97.84 151.386 100.573 150.986 102.84C150.613 105.08 150.133 106.907 149.546 108.32C148.986 109.733 148.266 110.773 147.386 111.44C146.506 112.08 145.426 112.4 144.146 112.4C143.453 112.4 142.826 112.347 142.266 112.24C141.706 112.133 141.199 111.973 140.746 111.76V107C141.039 107.107 141.346 107.2 141.666 107.28C141.986 107.36 142.319 107.4 142.666 107.4C143.039 107.4 143.386 107.253 143.706 106.96C144.053 106.667 144.373 106.147 144.666 105.4C144.986 104.653 145.279 103.627 145.546 102.32C145.813 101.013 146.053 99.3733 146.266 97.4C146.506 95.4 146.719 92.9867 146.906 90.16H163.426V112ZM174.687 112.4C173.301 112.4 172.061 112.293 170.967 112.08C169.901 111.867 168.901 111.52 167.967 111.04V106.4C168.927 106.827 169.941 107.2 171.007 107.52C172.101 107.813 173.221 107.96 174.367 107.96C175.274 107.96 176.061 107.8 176.727 107.48C177.394 107.133 177.927 106.587 178.327 105.84C178.727 105.093 178.967 104.133 179.047 102.96H170.807V99H179.047C178.941 97.3733 178.541 96.16 177.847 95.36C177.181 94.56 176.181 94.16 174.847 94.16C173.914 94.16 173.007 94.2933 172.127 94.56C171.274 94.8 170.487 95.08 169.767 95.4L168.087 91.32C168.941 90.9467 169.967 90.6 171.167 90.28C172.394 89.9333 173.701 89.76 175.087 89.76C177.007 89.76 178.727 90.0933 180.247 90.76C181.767 91.4267 182.967 92.56 183.847 94.16C184.754 95.76 185.207 97.9867 185.207 100.84C185.207 103.453 184.794 105.627 183.967 107.36C183.141 109.067 181.941 110.333 180.367 111.16C178.821 111.987 176.927 112.4 174.687 112.4ZM209.676 112H203.716V94.64H198.236C197.969 97.84 197.636 100.573 197.236 102.84C196.863 105.08 196.383 106.907 195.796 108.32C195.236 109.733 194.516 110.773 193.636 111.44C192.756 112.08 191.676 112.4 190.396 112.4C189.703 112.4 189.076 112.347 188.516 112.24C187.956 112.133 187.449 111.973 186.996 111.76V107C187.289 107.107 187.596 107.2 187.916 107.28C188.236 107.36 188.569 107.4 188.916 107.4C189.289 107.4 189.636 107.253 189.956 106.96C190.303 106.667 190.623 106.147 190.916 105.4C191.236 104.653 191.529 103.627 191.796 102.32C192.063 101.013 192.303 99.3733 192.516 97.4C192.756 95.4 192.969 92.9867 193.156 90.16H209.676V112Z" fill="white"/>
<path d="M37.5823 32V33H39.4552L38.4133 31.4437L37.5823 32ZM30.6623 32L29.8105 32.5237L30.1033 33H30.6623V32ZM24.0223 21.2L24.8742 20.6763L24.0223 19.2907L23.1705 20.6763L24.0223 21.2ZM17.3823 32V33H17.9414L18.2342 32.5237L17.3823 32ZM10.9023 32L10.0616 31.4585L9.06888 33H10.9023V32ZM20.3823 17.28L21.2231 17.8214L21.5711 17.281L21.224 16.74L20.3823 17.28ZM11.5023 3.44V2.44H9.67259L10.6607 3.98002L11.5023 3.44ZM18.1823 3.44L19.0401 2.92599L18.7489 2.44H18.1823V3.44ZM24.3423 13.72L23.4846 14.234L24.3508 15.6796L25.2045 14.2266L24.3423 13.72ZM30.3823 3.44V2.44H29.8101L29.5202 2.93342L30.3823 3.44ZM36.9023 3.44L37.7474 3.97471L38.7185 2.44H36.9023V3.44ZM27.9423 17.6L27.0973 17.0653L26.7492 17.6154L27.1114 18.1563L27.9423 17.6ZM37.5823 31H30.6623V33H37.5823V31ZM31.5142 31.4763L24.8742 20.6763L23.1705 21.7237L29.8105 32.5237L31.5142 31.4763ZM23.1705 20.6763L16.5305 31.4763L18.2342 32.5237L24.8742 21.7237L23.1705 20.6763ZM17.3823 31H10.9023V33H17.3823V31ZM11.7431 32.5415L21.2231 17.8214L19.5416 16.7385L10.0616 31.4585L11.7431 32.5415ZM21.224 16.74L12.344 2.89998L10.6607 3.98002L19.5407 17.82L21.224 16.74ZM11.5023 4.44H18.1823V2.44H11.5023V4.44ZM17.3246 3.954L23.4846 14.234L25.2001 13.206L19.0401 2.92599L17.3246 3.954ZM25.2045 14.2266L31.2445 3.94658L29.5202 2.93342L23.4802 13.2134L25.2045 14.2266ZM30.3823 4.44H36.9023V2.44H30.3823V4.44ZM36.0573 2.90529L27.0973 17.0653L28.7874 18.1347L37.7474 3.97471L36.0573 2.90529ZM27.1114 18.1563L36.7514 32.5563L38.4133 31.4437L28.7733 17.0437L27.1114 18.1563ZM52.062 41.6V42.6H53.062V41.6H52.062ZM46.062 41.6H45.062V42.6H46.062V41.6ZM46.062 32H47.062V31.8127L46.9942 31.638L46.062 32ZM37.582 10.16V9.16H36.121L36.6498 10.522L37.582 10.16ZM44.142 10.16L45.086 9.82999L44.8518 9.16H44.142V10.16ZM47.582 20L46.6381 20.33L46.6406 20.3372L46.6432 20.3443L47.582 20ZM48.382 22.8L47.4064 23.0195L47.4064 23.0195L48.382 22.8ZM48.942 25.4L47.9615 25.5961L48.1222 26.4H48.942V25.4ZM49.182 25.4V26.4H50.0018L50.1626 25.5961L49.182 25.4ZM49.742 22.8L48.7719 22.5575L48.769 22.5689L48.7664 22.5805L49.742 22.8ZM50.542 20L49.5993 19.6666L49.5962 19.6751L49.5933 19.6838L50.542 20ZM54.022 10.16V9.16H53.315L53.0793 9.82658L54.022 10.16ZM60.542 10.16L61.4742 10.522L62.003 9.16H60.542V10.16ZM52.062 32L51.1298 31.638L51.062 31.8127V32H52.062ZM52.062 40.6H46.062V42.6H52.062V40.6ZM47.062 41.6V32H45.062V41.6H47.062ZM46.9942 31.638L38.5142 9.79805L36.6498 10.522L45.1298 32.362L46.9942 31.638ZM37.582 11.16H44.142V9.16H37.582V11.16ZM43.1981 10.49L46.6381 20.33L48.526 19.67L45.086 9.82999L43.1981 10.49ZM46.6432 20.3443C46.9181 21.094 47.1734 21.984 47.4064 23.0195L49.3576 22.5805C49.1106 21.4827 48.8327 20.506 48.5209 19.6557L46.6432 20.3443ZM47.4064 23.0195C47.6456 24.0825 47.8303 24.9405 47.9615 25.5961L49.9226 25.2039C49.7871 24.5262 49.5985 23.6509 49.3576 22.5805L47.4064 23.0195ZM48.942 26.4H49.182V24.4H48.942V26.4ZM50.1626 25.5961C50.2937 24.9405 50.4785 24.0825 50.7176 23.0195L48.7664 22.5805C48.5256 23.6509 48.337 24.5262 48.2015 25.2039L50.1626 25.5961ZM50.7122 23.0425C50.9744 21.9937 51.2341 21.086 51.4907 20.3162L49.5933 19.6838C49.3166 20.514 49.043 21.473 48.7719 22.5575L50.7122 23.0425ZM51.4848 20.3334L54.9648 10.4934L53.0793 9.82658L49.5993 19.6666L51.4848 20.3334ZM54.022 11.16H60.542V9.16H54.022V11.16ZM59.6098 9.79805L51.1298 31.638L52.9942 32.362L61.4742 10.522L59.6098 9.79805ZM51.062 32V41.6H53.062V32H51.062ZM69.6308 10.16H70.6308V9.16H69.6308V10.16ZM69.6308 18.56H68.6308V19.56H69.6308V18.56ZM77.9508 18.56V19.56H78.9508V18.56H77.9508ZM77.9508 10.16V9.16H76.9508V10.16H77.9508ZM83.9108 10.16H84.9108V9.16H83.9108V10.16ZM83.9108 32V33H84.9108V32H83.9108ZM77.9508 32H76.9508V33H77.9508V32ZM77.9508 23H78.9508V22H77.9508V23ZM69.6308 23V22H68.6308V23H69.6308ZM69.6308 32V33H70.6308V32H69.6308ZM63.6708 32H62.6708V33H63.6708V32ZM63.6708 10.16V9.16H62.6708V10.16H63.6708ZM68.6308 10.16V18.56H70.6308V10.16H68.6308ZM69.6308 19.56H77.9508V17.56H69.6308V19.56ZM78.9508 18.56V10.16H76.9508V18.56H78.9508ZM77.9508 11.16H83.9108V9.16H77.9508V11.16ZM82.9108 10.16V32H84.9108V10.16H82.9108ZM83.9108 31H77.9508V33H83.9108V31ZM78.9508 32V23H76.9508V32H78.9508ZM77.9508 22H69.6308V24H77.9508V22ZM68.6308 23V32H70.6308V23H68.6308ZM69.6308 31H63.6708V33H69.6308V31ZM64.6708 32V10.16H62.6708V32H64.6708ZM63.6708 11.16H69.6308V9.16H63.6708V11.16ZM93.5152 31.24L93.0494 32.125L93.0617 32.1313L93.5152 31.24ZM90.0352 27.56L90.9353 27.1244L90.9353 27.1244L90.0352 27.56ZM90.1952 14.68L89.3151 14.2051L89.3151 14.2051L90.1952 14.68ZM93.9552 10.96L93.5138 10.0626L93.5079 10.0656L93.9552 10.96ZM103.435 10.2L103.176 11.1659L103.182 11.1674L103.435 10.2ZM106.355 11.24L107.289 11.5973L107.617 10.7398L106.791 10.3398L106.355 11.24ZM104.595 15.84L104.224 16.7685L105.166 17.1455L105.529 16.1973L104.595 15.84ZM101.955 14.92L101.668 15.8779L101.676 15.8803L101.955 14.92ZM96.9552 15.32L97.5244 16.1422L97.5349 16.1349L97.5452 16.1274L96.9552 15.32ZM95.3952 17.52L94.4517 17.1885L94.449 17.1961L94.4465 17.2038L95.3952 17.52ZM95.4352 24.76L94.4946 25.0996L94.5004 25.1156L94.5067 25.1314L95.4352 24.76ZM97.0352 26.88L96.4659 27.7022L96.4768 27.7097L96.4879 27.717L97.0352 26.88ZM102.875 27.08L103.191 28.0287L103.203 28.0248L103.215 28.0206L102.875 27.08ZM105.675 25.68H106.675V23.8419L105.132 24.8404L105.675 25.68ZM105.675 30.76L106.218 31.5996L106.675 31.304V30.76H105.675ZM102.795 32L102.565 31.0269L102.549 31.0305L102.534 31.0346L102.795 32ZM99.0352 31.4C96.9918 31.4 95.3157 31.0341 93.9686 30.3487L93.0617 32.1313C94.7546 32.9926 96.7585 33.4 99.0352 33.4V31.4ZM93.9809 30.3551C92.6635 29.6617 91.6491 28.5996 90.9353 27.1244L89.135 27.9956C90.0212 29.8271 91.3269 31.2183 93.0494 32.1249L93.9809 30.3551ZM90.9353 27.1244C90.2222 25.6507 89.8352 23.6934 89.8352 21.2H87.8352C87.8352 23.8799 88.2481 26.1627 89.135 27.9956L90.9353 27.1244ZM89.8352 21.2C89.8352 18.6369 90.2723 16.6426 91.0752 15.1549L89.3151 14.2051C88.3047 16.0774 87.8352 18.4298 87.8352 21.2H89.8352ZM91.0752 15.1549C91.8911 13.6431 92.999 12.5561 94.4024 11.8544L93.5079 10.0656C91.7113 10.9639 90.3126 12.3569 89.3151 14.2051L91.0752 15.1549ZM94.3965 11.8573C95.8652 11.135 97.5767 10.76 99.5552 10.76V8.76C97.3202 8.76 95.2984 9.18498 93.5138 10.0626L94.3965 11.8573ZM99.5552 10.76C100.987 10.76 102.189 10.9011 103.176 11.1658L103.694 9.23416C102.495 8.91226 101.11 8.76 99.5552 8.76V10.76ZM103.182 11.1674C104.254 11.4483 105.164 11.7746 105.92 12.1402L106.791 10.3398C105.893 9.90539 104.856 9.53836 103.689 9.23263L103.182 11.1674ZM105.421 10.8827L103.661 15.4827L105.529 16.1973L107.289 11.5973L105.421 10.8827ZM104.967 14.9115C104.008 14.528 103.097 14.2101 102.234 13.9597L101.676 15.8803C102.467 16.1099 103.316 16.4053 104.224 16.7685L104.967 14.9115ZM102.243 13.9622C101.353 13.6954 100.457 13.56 99.5552 13.56V15.56C100.254 15.56 100.957 15.6646 101.668 15.8778L102.243 13.9622ZM99.5552 13.56C98.3488 13.56 97.2633 13.8562 96.3651 14.5126L97.5452 16.1274C98.0336 15.7704 98.6815 15.56 99.5552 15.56V13.56ZM96.3859 14.4978C95.4813 15.1241 94.8512 16.0513 94.4517 17.1885L96.3386 17.8515C96.6324 17.0153 97.0423 16.4759 97.5244 16.1422L96.3859 14.4978ZM94.4465 17.2038C94.0809 18.3004 93.9152 19.6297 93.9152 21.16H95.9152C95.9152 19.7569 96.0694 18.6596 96.3438 17.8362L94.4465 17.2038ZM93.9152 21.16C93.9152 22.672 94.0961 23.996 94.4946 25.0996L96.3757 24.4204C96.0809 23.604 95.9152 22.528 95.9152 21.16H93.9152ZM94.5067 25.1314C94.9387 26.2114 95.5823 27.0905 96.4659 27.7022L97.6044 26.0578C97.1013 25.7095 96.6783 25.1752 96.3636 24.3886L94.5067 25.1314ZM96.4879 27.717C97.3729 28.2956 98.4118 28.56 99.5552 28.56V26.56C98.7252 26.56 98.0841 26.3711 97.5824 26.043L96.4879 27.717ZM99.5552 28.56C100.891 28.56 102.108 28.3897 103.191 28.0287L102.559 26.1313C101.722 26.4103 100.726 26.56 99.5552 26.56V28.56ZM103.215 28.0206C104.25 27.6466 105.252 27.1451 106.218 26.5196L105.132 24.8404C104.285 25.3882 103.42 25.82 102.536 26.1394L103.215 28.0206ZM104.675 25.68V30.76H106.675V25.68H104.675ZM105.132 29.9204C104.318 30.4474 103.463 30.8142 102.565 31.0269L103.026 32.9731C104.154 32.7058 105.219 32.2459 106.218 31.5996L105.132 29.9204ZM102.534 31.0346C101.663 31.2701 100.505 31.4 99.0352 31.4V33.4C100.605 33.4 101.954 33.2632 103.056 32.9654L102.534 31.0346ZM116.662 10.16H117.662V9.16H116.662V10.16ZM116.662 18.56H115.662V19.56H116.662V18.56ZM124.982 18.56V19.56H125.982V18.56H124.982ZM124.982 10.16V9.16H123.982V10.16H124.982ZM130.942 10.16H131.942V9.16H130.942V10.16ZM130.942 32V33H131.942V32H130.942ZM124.982 32H123.982V33H124.982V32ZM124.982 23H125.982V22H124.982V23ZM116.662 23V22H115.662V23H116.662ZM116.662 32V33H117.662V32H116.662ZM110.702 32H109.702V33H110.702V32ZM110.702 10.16V9.16H109.702V10.16H110.702ZM115.662 10.16V18.56H117.662V10.16H115.662ZM116.662 19.56H124.982V17.56H116.662V19.56ZM125.982 18.56V10.16H123.982V18.56H125.982ZM124.982 11.16H130.942V9.16H124.982V11.16ZM129.942 10.16V32H131.942V10.16H129.942ZM130.942 31H124.982V33H130.942V31ZM125.982 32V23H123.982V32H125.982ZM124.982 22H116.662V24H124.982V22ZM115.662 23V32H117.662V23H115.662ZM116.662 31H110.702V33H116.662V31ZM111.702 32V10.16H109.702V32H111.702ZM110.702 11.16H116.662V9.16H110.702V11.16ZM142.866 20.48L141.87 20.4003L141.868 20.4201L141.867 20.44L142.866 20.48ZM142.746 22.52L141.749 22.4433L141.748 22.4624L141.747 22.4816L142.746 22.52ZM142.626 24.36L143.621 24.4595L143.621 24.4595L142.626 24.36ZM142.506 25.48L141.514 25.356L143.342 26.0297L142.506 25.48ZM152.586 10.16V9.16H152.047L151.751 9.61034L152.586 10.16ZM159.746 10.16H160.746V9.16H159.746V10.16ZM159.746 32V33H160.746V32H159.746ZM153.986 32H152.986V33H153.986V32ZM154.066 20.92L155.064 20.9824L155.065 20.9805L154.066 20.92ZM154.226 18.48L153.232 18.3771L153.23 18.3929L153.229 18.4088L154.226 18.48ZM154.386 16.72L155.384 16.7865L155.637 12.9958L153.551 16.1709L154.386 16.72ZM144.346 32V33H144.886L145.182 32.5491L144.346 32ZM137.186 32H136.186V33H137.186V32ZM137.186 10.16V9.16H136.186V10.16H137.186ZM142.946 10.16H143.946V9.16H142.946V10.16ZM141.946 18.8C141.946 19.2175 141.922 19.7489 141.87 20.4003L143.863 20.5597C143.918 19.8777 143.946 19.2892 143.946 18.8H141.946ZM141.867 20.44C141.841 21.0939 141.802 21.7617 141.749 22.4433L143.743 22.5967C143.798 21.8916 143.838 21.1994 143.866 20.52L141.867 20.44ZM141.747 22.4816C141.721 23.1601 141.682 23.7524 141.631 24.2605L143.621 24.4595C143.677 23.901 143.718 23.2666 143.746 22.5584L141.747 22.4816ZM141.631 24.2605C141.578 24.7941 141.539 25.1563 141.514 25.356L143.499 25.604C143.527 25.377 143.568 24.9925 143.621 24.4595L141.631 24.2605ZM143.342 26.0297L153.422 10.7097L151.751 9.61034L141.671 24.9303L143.342 26.0297ZM152.586 11.16H159.746V9.16H152.586V11.16ZM158.746 10.16V32H160.746V10.16H158.746ZM159.746 31H153.986V33H159.746V31ZM154.986 32V23.28H152.986V32H154.986ZM154.986 23.28C154.986 22.5842 155.012 21.8187 155.064 20.9824L153.068 20.8576C153.014 21.728 152.986 22.5358 152.986 23.28H154.986ZM155.065 20.9805C155.118 20.1035 155.171 19.2938 155.224 18.5512L153.229 18.4088C153.175 19.1596 153.122 19.9765 153.068 20.8595L155.065 20.9805ZM155.221 18.5829C155.301 17.8064 155.356 17.2052 155.384 16.7865L153.389 16.6535C153.363 17.0348 153.311 17.6069 153.232 18.3771L155.221 18.5829ZM153.551 16.1709L143.511 31.4509L145.182 32.5491L155.222 17.2691L153.551 16.1709ZM144.346 31H137.186V33H144.346V31ZM138.186 32V10.16H136.186V32H138.186ZM137.186 11.16H142.946V9.16H137.186V11.16ZM141.946 10.16V18.8H143.946V10.16H141.946ZM186.895 0.759999L187.891 0.855712L187.996 -0.240001H186.895V0.759999ZM185.735 4.44L186.587 4.96413L186.593 4.95449L185.735 4.44ZM182.735 6.88L182.339 5.96179L182.339 5.96179L182.735 6.88ZM171.735 6.92L171.326 7.83227L171.337 7.83726L171.348 7.84198L171.735 6.92ZM168.935 4.48L168.055 4.9541L168.055 4.9541L168.935 4.48ZM167.935 0.759999V-0.240001H166.859L166.938 0.833871L167.935 0.759999ZM173.255 0.759999L174.251 0.669464L174.169 -0.240001H173.255V0.759999ZM174.375 3.68L173.759 4.4675L173.759 4.46751L174.375 3.68ZM180.175 3.64L180.751 4.45782L180.757 4.45373L180.175 3.64ZM181.495 0.759999V-0.240001H180.587L180.5 0.664287L181.495 0.759999ZM171.655 20.48L170.659 20.4003L170.657 20.4201L170.656 20.44L171.655 20.48ZM171.535 22.52L170.538 22.4433L170.537 22.4624L170.536 22.4816L171.535 22.52ZM171.415 24.36L172.411 24.4595L172.411 24.4595L171.415 24.36ZM171.295 25.48L170.303 25.356L172.131 26.0297L171.295 25.48ZM181.375 10.16V9.16H180.836L180.54 9.61034L181.375 10.16ZM188.535 10.16H189.535V9.16H188.535V10.16ZM188.535 32V33H189.535V32H188.535ZM182.775 32H181.775V33H182.775V32ZM182.855 20.92L183.854 20.9824L183.854 20.9805L182.855 20.92ZM183.015 18.48L182.021 18.3771L182.019 18.3929L182.018 18.4088L183.015 18.48ZM183.175 16.72L184.173 16.7865L184.426 12.9958L182.34 16.1709L183.175 16.72ZM173.135 32V33H173.675L173.971 32.5491L173.135 32ZM165.975 32H164.975V33H165.975V32ZM165.975 10.16V9.16H164.975V10.16H165.975ZM171.735 10.16H172.735V9.16H171.735V10.16ZM185.9 0.664287C185.779 1.92072 185.433 3.00099 184.878 3.9255L186.593 4.95449C187.318 3.74568 187.745 2.37261 187.891 0.855712L185.9 0.664287ZM184.884 3.9159C184.373 4.74639 183.551 5.43891 182.339 5.96179L183.132 7.79821C184.639 7.14775 185.818 6.2136 186.587 4.9641L184.884 3.9159ZM182.339 5.96179C181.154 6.47314 179.48 6.76 177.255 6.76V8.76C179.618 8.76 181.597 8.4602 183.132 7.79821L182.339 5.96179ZM177.255 6.76C174.969 6.76 173.281 6.48434 172.123 5.99802L171.348 7.84198C172.857 8.47566 174.849 8.76 177.255 8.76V6.76ZM172.145 6.00773C170.995 5.49156 170.251 4.81347 169.816 4.0059L168.055 4.9541C168.74 6.22653 169.862 7.1751 171.326 7.83227L172.145 6.00773ZM169.816 4.0059C169.336 3.11394 169.031 2.01644 168.933 0.686127L166.938 0.833871C167.053 2.38355 167.415 3.76605 168.055 4.9541L169.816 4.0059ZM167.935 1.76H173.255V-0.240001H167.935V1.76ZM172.26 0.850535C172.398 2.37158 172.801 3.71739 173.759 4.4675L174.992 2.89249C174.724 2.68261 174.38 2.08175 174.251 0.669464L172.26 0.850535ZM173.759 4.46751C174.64 5.1572 175.92 5.4 177.375 5.4V3.4C176.057 3.4 175.337 3.1628 174.992 2.89249L173.759 4.46751ZM177.375 5.4C178.666 5.4 179.818 5.11428 180.751 4.4578L179.6 2.82219C179.093 3.17905 178.378 3.4 177.375 3.4V5.4ZM180.757 4.45373C181.839 3.68094 182.344 2.38032 182.491 0.855712L180.5 0.664287C180.38 1.91301 180.006 2.53239 179.594 2.82626L180.757 4.45373ZM181.495 1.76H186.895V-0.240001H181.495V1.76ZM170.735 18.8C170.735 19.2175 170.711 19.7489 170.659 20.4003L172.652 20.5597C172.707 19.8777 172.735 19.2892 172.735 18.8H170.735ZM170.656 20.44C170.63 21.0939 170.591 21.7617 170.538 22.4433L172.533 22.5967C172.587 21.8916 172.627 21.1994 172.655 20.52L170.656 20.44ZM170.536 22.4816C170.51 23.1601 170.471 23.7524 170.42 24.2605L172.411 24.4595C172.466 23.901 172.507 23.2666 172.535 22.5584L170.536 22.4816ZM170.42 24.2605C170.367 24.7941 170.328 25.1563 170.303 25.356L172.288 25.604C172.316 25.377 172.357 24.9925 172.411 24.4595L170.42 24.2605ZM172.131 26.0297L182.211 10.7097L180.54 9.61034L170.46 24.9303L172.131 26.0297ZM181.375 11.16H188.535V9.16H181.375V11.16ZM187.535 10.16V32H189.535V10.16H187.535ZM188.535 31H182.775V33H188.535V31ZM183.775 32V23.28H181.775V32H183.775ZM183.775 23.28C183.775 22.5842 183.801 21.8187 183.854 20.9824L181.857 20.8576C181.803 21.728 181.775 22.5358 181.775 23.28H183.775ZM183.854 20.9805C183.907 20.1035 183.96 19.2938 184.013 18.5512L182.018 18.4088C181.964 19.1596 181.911 19.9765 181.857 20.8595L183.854 20.9805ZM184.01 18.5829C184.09 17.8064 184.145 17.2052 184.173 16.7865L182.178 16.6535C182.152 17.0348 182.1 17.6069 182.021 18.3771L184.01 18.5829ZM182.34 16.1709L172.3 31.4509L173.971 32.5491L184.011 17.2691L182.34 16.1709ZM173.135 31H165.975V33H173.135V31ZM166.975 32V10.16H164.975V32H166.975ZM165.975 11.16H171.735V9.16H165.975V11.16ZM170.735 10.16V18.8H172.735V10.16H170.735ZM46.262 63.72L45.3065 63.4249L45.3038 63.434L46.262 63.72ZM43.782 68.36L43.0227 67.7092L43.0151 67.7183L43.782 68.36ZM39.542 71.36L39.1706 70.4315L39.1657 70.4335L39.542 71.36ZM27.422 71.36L27.0333 72.2814L27.042 72.285L27.0506 72.2885L27.422 71.36ZM23.182 68.36L22.4151 69.0017L22.4222 69.0102L22.4295 69.0185L23.182 68.36ZM20.702 63.68L19.7426 63.9622L19.7466 63.9751L20.702 63.68ZM21.342 49.92L20.4305 49.5087L20.4264 49.518L21.342 49.92ZM25.822 44.84L26.3365 45.6975L26.3398 45.6955L25.822 44.84ZM41.182 44.84L40.6592 45.6925L40.6675 45.6975L41.182 44.84ZM45.622 49.96L44.7046 50.3579L44.7075 50.3646L44.7105 50.3713L45.622 49.96ZM37.262 66.44L36.761 65.5746L36.761 65.5746L37.262 66.44ZM39.622 63.88L38.7362 63.416L38.7318 63.4243L38.7276 63.4328L39.622 63.88ZM40.742 59.88L41.7367 59.9829L41.8508 58.88H40.742V59.88ZM26.222 59.88V58.88H25.0941L25.2292 59.9998L26.222 59.88ZM27.342 63.88L26.4476 64.3272L26.4518 64.3357L26.4562 64.344L27.342 63.88ZM29.742 66.44L29.241 67.3055L29.2507 67.311L29.742 66.44ZM29.902 48.84L29.4363 47.955L29.4265 47.9603L29.902 48.84ZM27.542 51.16L26.6766 50.659L26.6766 50.659L27.542 51.16ZM26.302 54.84L25.3156 54.6756L25.1216 55.84H26.302V54.84ZM40.662 54.84V55.84H41.8232L41.651 54.6917L40.662 54.84ZM38.462 49.84L39.185 49.1491L38.462 49.84ZM46.102 57.68C46.102 59.8095 45.8326 61.7215 45.3066 63.4249L47.2175 64.0151C47.8115 62.0918 48.102 59.9772 48.102 57.68H46.102ZM45.3038 63.434C44.8071 65.0978 44.0443 66.5175 43.0228 67.7092L44.5413 69.0108C45.7598 67.5892 46.6502 65.9155 47.2203 64.006L45.3038 63.434ZM43.0151 67.7183C42.0378 68.8863 40.7655 69.7936 39.1706 70.4315L39.9134 72.2885C41.7853 71.5397 43.3396 70.4471 44.549 69.0017L43.0151 67.7183ZM39.1657 70.4335C37.6051 71.0675 35.7252 71.4 33.502 71.4V73.4C35.9188 73.4 38.0656 73.0392 39.9184 72.2865L39.1657 70.4335ZM33.502 71.4C31.2794 71.4 29.3838 71.0677 27.7934 70.4315L27.0506 72.2885C28.9269 73.039 31.0846 73.4 33.502 73.4V71.4ZM27.8107 70.4386C26.2311 69.7722 24.9461 68.8575 23.9346 67.7015L22.4295 69.0185C23.6579 70.4225 25.1997 71.5078 27.0333 72.2814L27.8107 70.4386ZM23.949 67.7183C22.9501 66.5245 22.1828 65.0858 21.6575 63.3849L19.7466 63.9751C20.3413 65.9009 21.2273 67.5822 22.4151 69.0017L23.949 67.7183ZM21.6614 63.3978C21.1592 61.6902 20.902 59.7737 20.902 57.64H18.902C18.902 59.933 19.1782 62.0431 19.7427 63.9622L21.6614 63.3978ZM20.902 57.64C20.902 54.7862 21.3649 52.3555 22.2577 50.322L20.4264 49.518C19.3991 51.8579 18.902 54.5738 18.902 57.64H20.902ZM22.2535 50.3313C23.159 48.3247 24.5165 46.7895 26.3365 45.6975L25.3075 43.9825C23.1276 45.2905 21.4984 47.142 20.4305 49.5087L22.2535 50.3313ZM26.3398 45.6955C28.1682 44.5888 30.5482 44 33.542 44V42C30.2959 42 27.5292 42.6378 25.3042 43.9845L26.3398 45.6955ZM33.542 44C36.5082 44 38.8591 44.5884 40.6592 45.6924L41.7049 43.9876C39.5049 42.6383 36.7626 42 33.542 42V44ZM40.6675 45.6975C42.4821 46.7862 43.8246 48.329 44.7046 50.3579L46.5395 49.5621C45.4994 47.1643 43.882 45.2938 41.6965 43.9825L40.6675 45.6975ZM44.7105 50.3713C45.6269 52.4022 46.102 54.8295 46.102 57.68H48.102C48.102 54.6105 47.5905 51.8912 46.5335 49.5487L44.7105 50.3713ZM33.502 68.32C35.1237 68.32 36.561 68.0014 37.7631 67.3054L36.761 65.5746C35.9364 66.052 34.867 66.32 33.502 66.32V68.32ZM37.7631 67.3054C38.9575 66.6139 39.8754 65.6093 40.5165 64.3272L38.7276 63.4328C38.2487 64.3907 37.5932 65.0928 36.761 65.5746L37.7631 67.3054ZM40.5079 64.344C41.1652 63.0891 41.5666 61.6277 41.7367 59.9829L39.7473 59.7771C39.5975 61.2257 39.2522 62.4309 38.7362 63.416L40.5079 64.344ZM40.742 58.88H26.222V60.88H40.742V58.88ZM25.2292 59.9998C25.4264 61.6337 25.8255 63.0829 26.4476 64.3272L28.2365 63.4328C27.7386 62.4371 27.391 61.2196 27.2148 59.7602L25.2292 59.9998ZM26.4562 64.344C27.1233 65.6176 28.0509 66.6164 29.241 67.3054L30.2431 65.5746C29.4065 65.0902 28.7341 64.3824 28.2279 63.416L26.4562 64.344ZM29.2507 67.311C30.4713 67.9995 31.9022 68.32 33.502 68.32V66.32C32.1685 66.32 31.0928 66.0538 30.2334 65.569L29.2507 67.311ZM33.542 47.04C32.0038 47.04 30.6231 47.3305 29.4363 47.9551L30.3678 49.7249C31.2077 49.2829 32.2536 49.04 33.542 49.04V47.04ZM29.4265 47.9603C28.2701 48.5854 27.3515 49.4932 26.6766 50.659L28.4075 51.661C28.9059 50.8001 29.5606 50.1613 30.3776 49.7197L29.4265 47.9603ZM26.6766 50.659C26.0169 51.7985 25.5707 53.1452 25.3156 54.6756L27.2884 55.0044C27.5134 53.6548 27.8938 52.5482 28.4075 51.661L26.6766 50.659ZM26.302 55.84H40.662V53.84H26.302V55.84ZM41.651 54.6917C41.3095 52.4152 40.5114 50.5372 39.185 49.1491L37.739 50.5309C38.706 51.5428 39.3746 52.9981 39.6731 54.9883L41.651 54.6917ZM39.185 49.1491C37.7996 47.6993 35.8663 47.04 33.542 47.04V49.04C35.4844 49.04 36.8311 49.5807 37.739 50.5309L39.185 49.1491ZM71.7873 50.16H72.7873V49.16H71.7873V50.16ZM71.7873 67.64H70.7873V68.64H71.7873V67.64ZM74.9873 67.64H75.9873V66.64H74.9873V67.64ZM74.9873 79.84V80.84H75.9873V79.84H74.9873ZM69.6273 79.84H68.6273V80.84H69.6273V79.84ZM69.6273 72H70.6273V71H69.6273V72ZM54.9473 72V71H53.9473V72H54.9473ZM54.9473 79.84V80.84H55.9473V79.84H54.9473ZM49.5873 79.84H48.5873V80.84H49.5873V79.84ZM49.5873 67.64V66.64H48.5873V67.64H49.5873ZM51.4273 67.64V68.64H51.968L52.264 68.1877L51.4273 67.64ZM53.8673 62.64L54.8091 62.9763L54.8106 62.9721L53.8673 62.64ZM56.3473 50.16V49.16H55.43L55.3511 50.0739L56.3473 50.16ZM61.3473 54.64V53.64H60.4718L60.3561 54.5078L61.3473 54.64ZM60.5473 59.32L61.5252 59.5295L61.5259 59.526L60.5473 59.32ZM59.3473 63.64L58.4024 63.3129L58.3995 63.3211L58.3968 63.3293L59.3473 63.64ZM57.6673 67.64L56.7804 67.1781L56.019 68.64H57.6673V67.64ZM65.8273 67.64V68.64H66.8273V67.64H65.8273ZM65.8273 54.64H66.8273V53.64H65.8273V54.64ZM70.7873 50.16V67.64H72.7873V50.16H70.7873ZM71.7873 68.64H74.9873V66.64H71.7873V68.64ZM73.9873 67.64V79.84H75.9873V67.64H73.9873ZM74.9873 78.84H69.6273V80.84H74.9873V78.84ZM70.6273 79.84V72H68.6273V79.84H70.6273ZM69.6273 71H54.9473V73H69.6273V71ZM53.9473 72V79.84H55.9473V72H53.9473ZM54.9473 78.84H49.5873V80.84H54.9473V78.84ZM50.5873 79.84V67.64H48.5873V79.84H50.5873ZM49.5873 68.64H51.4273V66.64H49.5873V68.64ZM52.264 68.1877C53.2725 66.647 54.1193 64.9078 54.8091 62.9763L52.9256 62.3037C52.2821 64.1055 51.5022 65.6997 50.5906 67.0923L52.264 68.1877ZM54.8106 62.9721C55.4955 61.0269 56.0416 58.9638 56.4502 56.7843L54.4845 56.4157C54.0931 58.5028 53.5725 60.4664 52.9241 62.3079L54.8106 62.9721ZM56.4502 56.7843C56.8563 54.6185 57.1541 52.4391 57.3436 50.2461L55.3511 50.0739C55.1672 52.2009 54.8784 54.3148 54.4845 56.4157L56.4502 56.7843ZM56.3473 51.16H71.7873V49.16H56.3473V51.16ZM60.3561 54.5078C60.146 56.084 59.8835 57.6194 59.5688 59.114L61.5259 59.526C61.8512 57.9806 62.1221 56.396 62.3386 54.7722L60.3561 54.5078ZM59.5695 59.1105C59.2577 60.5656 58.8685 61.9662 58.4024 63.3129L60.2923 63.9671C60.7862 62.5404 61.197 61.0611 61.5251 59.5295L59.5695 59.1105ZM58.3968 63.3293C57.9603 64.6644 57.4215 65.9472 56.7804 67.1781L58.5543 68.1019C59.2465 66.7728 59.8277 65.3889 60.2978 63.9507L58.3968 63.3293ZM57.6673 68.64H65.8273V66.64H57.6673V68.64ZM66.8273 67.64V54.64H64.8273V67.64H66.8273ZM65.8273 53.64H61.3473V55.64H65.8273V53.64ZM96.8298 52.64L96.0458 53.2607L96.05 53.266L96.8298 52.64ZM98.0298 67.32L98.949 67.7139L98.9512 67.7087L98.0298 67.32ZM95.0698 71.12L94.5071 70.2934L94.5071 70.2934L95.0698 71.12ZM87.9898 72L87.6535 72.9418L87.6639 72.9454L87.9898 72ZM86.0698 70.96L86.6945 70.1791L86.6945 70.1791L86.0698 70.96ZM84.6698 69.6L85.4381 68.9598L85.1382 68.6H84.6698V69.6ZM84.3498 69.6V68.6H83.1174L83.3713 69.806L84.3498 69.6ZM84.5898 71.2L83.5943 71.2948L83.5948 71.2995L84.5898 71.2ZM84.6698 81.6V82.6H85.6698V81.6H84.6698ZM78.7098 81.6H77.7098V82.6H78.7098V81.6ZM78.7098 50.16V49.16H77.7098V50.16H78.7098ZM83.5498 50.16L84.5088 49.8764L84.2969 49.16H83.5498V50.16ZM84.3898 53L83.4309 53.2836L83.6428 54H84.3898V53ZM84.6698 53V54H85.1983L85.4961 53.5633L84.6698 53ZM86.1098 51.4L86.7606 52.1593L86.7708 52.1505L86.7808 52.1415L86.1098 51.4ZM88.1098 50.2L87.7656 49.2611L87.7552 49.265L88.1098 50.2ZM86.4698 55.16L85.8988 54.3391L85.8988 54.3391L86.4698 55.16ZM85.1098 57.12L84.1612 56.8038L84.1582 56.8127L84.1554 56.8217L85.1098 57.12ZM84.6698 60.36L83.6701 60.3396L83.6698 60.3498V60.36H84.6698ZM85.0698 64.6L84.1045 64.8609L84.1063 64.8676L85.0698 64.6ZM86.4298 66.8L87.0505 66.016L87.0505 66.016L86.4298 66.8ZM91.2698 66.8L90.6162 66.0432L90.6162 66.0432L91.2698 66.8ZM92.5898 64.56L91.6313 64.275L91.6313 64.275L92.5898 64.56ZM92.0298 56.16L91.1668 56.6652L91.1742 56.6777L91.1818 56.69L92.0298 56.16ZM90.8698 50.76C93.0183 50.76 94.7159 51.5808 96.0458 53.2607L97.6139 52.0193C95.9038 49.8592 93.6281 48.76 90.8698 48.76V50.76ZM96.05 53.266C97.3696 54.9096 98.1098 57.4469 98.1098 61.04H100.11C100.11 57.2198 99.3301 54.157 97.6096 52.014L96.05 53.266ZM98.1098 61.04C98.1098 63.4292 97.7622 65.3817 97.1085 66.9313L98.9512 67.7087C99.7375 65.845 100.11 63.6108 100.11 61.04H98.1098ZM97.1107 66.9261C96.4502 68.4672 95.573 69.5676 94.5071 70.2934L95.6326 71.9466C97.0733 70.9657 98.1695 69.5328 98.949 67.7139L97.1107 66.9261ZM94.5071 70.2934C93.4347 71.0235 92.1814 71.4 90.7098 71.4V73.4C92.5449 73.4 94.1983 72.9231 95.6326 71.9466L94.5071 70.2934ZM90.7098 71.4C89.7521 71.4 88.9602 71.2768 88.3158 71.0546L87.6639 72.9454C88.5661 73.2565 89.5876 73.4 90.7098 73.4V71.4ZM88.3262 71.0583C87.6674 70.823 87.1287 70.5264 86.6945 70.1791L85.4451 71.7409C86.0777 72.2469 86.8189 72.6437 87.6535 72.9417L88.3262 71.0583ZM86.6945 70.1791C86.2088 69.7906 85.7913 69.3837 85.4381 68.9598L83.9016 70.2402C84.3484 70.7763 84.8642 71.2761 85.4451 71.7409L86.6945 70.1791ZM84.6698 68.6H84.3498V70.6H84.6698V68.6ZM83.3713 69.806C83.4696 70.273 83.5443 70.769 83.5943 71.2948L85.5853 71.1052C85.5288 70.511 85.4434 69.9404 85.3284 69.394L83.3713 69.806ZM83.5948 71.2995C83.6449 71.7999 83.6698 72.3001 83.6698 72.8H85.6698C85.6698 72.2333 85.6415 71.6667 85.5849 71.1005L83.5948 71.2995ZM83.6698 72.8V81.6H85.6698V72.8H83.6698ZM84.6698 80.6H78.7098V82.6H84.6698V80.6ZM79.7098 81.6V50.16H77.7098V81.6H79.7098ZM78.7098 51.16H83.5498V49.16H78.7098V51.16ZM82.5909 50.4436L83.4309 53.2836L85.3488 52.7164L84.5088 49.8764L82.5909 50.4436ZM84.3898 54H84.6698V52H84.3898V54ZM85.4961 53.5633C85.8446 53.0522 86.2649 52.5842 86.7606 52.1593L85.4591 50.6407C84.8348 51.1758 84.2951 51.7745 83.8436 52.4367L85.4961 53.5633ZM86.7808 52.1415C87.2399 51.7261 87.7966 51.3883 88.4645 51.135L87.7552 49.265C86.8764 49.5983 86.0998 50.0605 85.4389 50.6585L86.7808 52.1415ZM88.4541 51.1389C89.1225 50.8938 89.9222 50.76 90.8698 50.76V48.76C89.7375 48.76 88.6972 48.9195 87.7656 49.2611L88.4541 51.1389ZM88.9498 53.52C87.7833 53.52 86.7338 53.7582 85.8988 54.3391L87.0409 55.9809C87.4326 55.7084 88.0364 55.52 88.9498 55.52V53.52ZM85.8988 54.3391C85.0694 54.916 84.5059 55.7695 84.1612 56.8038L86.0585 57.4362C86.3004 56.7105 86.6436 56.2573 87.0409 55.9809L85.8988 54.3391ZM84.1554 56.8217C83.8509 57.7961 83.6978 58.9779 83.6701 60.3396L85.6696 60.3804C85.6952 59.1288 85.8355 58.1505 86.0643 57.4183L84.1554 56.8217ZM83.6698 60.36V61H85.6698V60.36H83.6698ZM83.6698 61C83.6698 62.4705 83.8079 63.7637 84.1045 64.8609L86.0352 64.3391C85.7984 63.463 85.6698 62.3562 85.6698 61H83.6698ZM84.1063 64.8676C84.4169 65.9858 84.9692 66.9191 85.8091 67.584L87.0505 66.016C86.6104 65.6675 86.2561 65.1342 86.0334 64.3324L84.1063 64.8676ZM85.8091 67.584C86.6776 68.2715 87.7875 68.56 89.0298 68.56V66.56C88.0855 66.56 87.4621 66.3418 87.0505 66.016L85.8091 67.584ZM89.0298 68.56C90.1335 68.56 91.1251 68.2463 91.9235 67.5568L90.6162 66.0432C90.2413 66.367 89.7395 66.56 89.0298 66.56V68.56ZM91.9235 67.5568C92.695 66.8905 93.218 65.9561 93.5484 64.845L91.6313 64.275C91.375 65.1372 91.018 65.6962 90.6162 66.0432L91.9235 67.5568ZM93.5484 64.845C93.8773 63.7386 94.0298 62.4366 94.0298 60.96H92.0298C92.0298 62.3101 91.8891 63.4081 91.6313 64.275L93.5484 64.845ZM94.0298 60.96C94.0298 58.7549 93.6911 56.9313 92.8778 55.63L91.1818 56.69C91.7019 57.5221 92.0298 58.8985 92.0298 60.96H94.0298ZM92.8929 55.6548C92.0498 54.2146 90.6689 53.52 88.9498 53.52V55.52C90.0575 55.52 90.7299 55.9187 91.1668 56.6652L92.8929 55.6548ZM109.702 60.48L108.706 60.4003L108.704 60.4201L108.703 60.44L109.702 60.48ZM109.582 62.52L108.585 62.4433L108.584 62.4624L108.583 62.4816L109.582 62.52ZM109.462 64.36L110.457 64.4595L110.457 64.4595L109.462 64.36ZM109.342 65.48L108.35 65.356L110.178 66.0297L109.342 65.48ZM119.422 50.16V49.16H118.883L118.587 49.6103L119.422 50.16ZM126.582 50.16H127.582V49.16H126.582V50.16ZM126.582 72V73H127.582V72H126.582ZM120.822 72H119.822V73H120.822V72ZM120.902 60.92L121.9 60.9824L121.901 60.9805L120.902 60.92ZM121.062 58.48L120.068 58.3771L120.066 58.3929L120.065 58.4088L121.062 58.48ZM121.222 56.72L122.22 56.7865L122.473 52.9958L120.387 56.1709L121.222 56.72ZM111.182 72V73H111.722L112.018 72.5491L111.182 72ZM104.022 72H103.022V73H104.022V72ZM104.022 50.16V49.16H103.022V50.16H104.022ZM109.782 50.16H110.782V49.16H109.782V50.16ZM108.782 58.8C108.782 59.2175 108.758 59.7489 108.706 60.4003L110.699 60.5597C110.754 59.8777 110.782 59.2892 110.782 58.8H108.782ZM108.703 60.44C108.677 61.0939 108.638 61.7617 108.585 62.4433L110.579 62.5967C110.634 61.8916 110.674 61.1994 110.702 60.52L108.703 60.44ZM108.583 62.4816C108.557 63.1601 108.518 63.7524 108.467 64.2605L110.457 64.4595C110.513 63.901 110.554 63.2666 110.582 62.5584L108.583 62.4816ZM108.467 64.2605C108.414 64.7941 108.375 65.1563 108.35 65.356L110.335 65.604C110.363 65.377 110.404 64.9925 110.457 64.4595L108.467 64.2605ZM110.178 66.0297L120.258 50.7097L118.587 49.6103L108.507 64.9303L110.178 66.0297ZM119.422 51.16H126.582V49.16H119.422V51.16ZM125.582 50.16V72H127.582V50.16H125.582ZM126.582 71H120.822V73H126.582V71ZM121.822 72V63.28H119.822V72H121.822ZM121.822 63.28C121.822 62.5842 121.848 61.8187 121.9 60.9824L119.904 60.8576C119.85 61.728 119.822 62.5358 119.822 63.28H121.822ZM121.901 60.9805C121.954 60.1035 122.007 59.2938 122.06 58.5512L120.065 58.4088C120.011 59.1596 119.958 59.9765 119.904 60.8595L121.901 60.9805ZM122.057 58.5829C122.137 57.8064 122.192 57.2052 122.22 56.7865L120.225 56.6535C120.199 57.0348 120.147 57.6069 120.068 58.3771L122.057 58.5829ZM120.387 56.1709L110.347 71.4509L112.018 72.5491L122.058 57.2691L120.387 56.1709ZM111.182 71H104.022V73H111.182V71ZM105.022 72V50.16H103.022V72H105.022ZM104.022 51.16H109.782V49.16H104.022V51.16ZM108.782 50.16V58.8H110.782V50.16H108.782ZM153.731 40.76L154.727 40.8557L154.832 39.76H153.731V40.76ZM152.571 44.44L153.423 44.9641L153.429 44.9545L152.571 44.44ZM149.571 46.88L149.175 45.9618L149.175 45.9618L149.571 46.88ZM138.571 46.92L138.162 47.8323L138.173 47.8373L138.184 47.842L138.571 46.92ZM135.771 44.48L134.891 44.9541L134.891 44.9541L135.771 44.48ZM134.771 40.76V39.76H133.695L133.774 40.8339L134.771 40.76ZM140.091 40.76L141.087 40.6695L141.005 39.76H140.091V40.76ZM141.211 43.68L140.595 44.4675L140.595 44.4675L141.211 43.68ZM147.011 43.64L147.587 44.4578L147.593 44.4537L147.011 43.64ZM148.331 40.76V39.76H147.423L147.336 40.6643L148.331 40.76ZM138.491 60.48L137.495 60.4003L137.493 60.4201L137.492 60.44L138.491 60.48ZM138.371 62.52L137.374 62.4433L137.373 62.4624L137.372 62.4816L138.371 62.52ZM138.251 64.36L139.246 64.4595L139.246 64.4595L138.251 64.36ZM138.131 65.48L137.139 65.356L138.967 66.0297L138.131 65.48ZM148.211 50.16V49.16H147.672L147.376 49.6103L148.211 50.16ZM155.371 50.16H156.371V49.16H155.371V50.16ZM155.371 72V73H156.371V72H155.371ZM149.611 72H148.611V73H149.611V72ZM149.691 60.92L150.689 60.9824L150.69 60.9805L149.691 60.92ZM149.851 58.48L148.857 58.3771L148.855 58.3929L148.854 58.4088L149.851 58.48ZM150.011 56.72L151.009 56.7865L151.262 52.9958L149.176 56.1709L150.011 56.72ZM139.971 72V73H140.511L140.807 72.5491L139.971 72ZM132.811 72H131.811V73H132.811V72ZM132.811 50.16V49.16H131.811V50.16H132.811ZM138.571 50.16H139.571V49.16H138.571V50.16ZM152.736 40.6643C152.615 41.9207 152.269 43.001 151.714 43.9255L153.429 44.9545C154.154 43.7457 154.581 42.3726 154.727 40.8557L152.736 40.6643ZM151.72 43.9159C151.209 44.7464 150.387 45.4389 149.175 45.9618L149.967 47.7982C151.475 47.1478 152.654 46.2136 153.423 44.9641L151.72 43.9159ZM149.175 45.9618C147.99 46.4731 146.315 46.76 144.091 46.76V48.76C146.454 48.76 148.433 48.4602 149.967 47.7982L149.175 45.9618ZM144.091 46.76C141.805 46.76 140.117 46.4843 138.959 45.998L138.184 47.842C139.693 48.4757 141.684 48.76 144.091 48.76V46.76ZM138.981 46.0077C137.831 45.4916 137.087 44.8135 136.652 44.0059L134.891 44.9541C135.576 46.2265 136.698 47.1751 138.162 47.8323L138.981 46.0077ZM136.652 44.0059C136.172 43.1139 135.867 42.0164 135.769 40.6861L133.774 40.8339C133.889 42.3836 134.251 43.7661 134.891 44.9541L136.652 44.0059ZM134.771 41.76H140.091V39.76H134.771V41.76ZM139.096 40.8505C139.234 42.3716 139.637 43.7174 140.595 44.4675L141.828 42.8925C141.56 42.6826 141.216 42.0817 141.087 40.6695L139.096 40.8505ZM140.595 44.4675C141.476 45.1572 142.756 45.4 144.211 45.4V43.4C142.893 43.4 142.173 43.1628 141.828 42.8925L140.595 44.4675ZM144.211 45.4C145.502 45.4 146.654 45.1143 147.587 44.4578L146.436 42.8222C145.929 43.179 145.214 43.4 144.211 43.4V45.4ZM147.593 44.4537C148.675 43.6809 149.18 42.3803 149.327 40.8557L147.336 40.6643C147.216 41.913 146.842 42.5324 146.43 42.8263L147.593 44.4537ZM148.331 41.76H153.731V39.76H148.331V41.76ZM137.571 58.8C137.571 59.2175 137.547 59.7489 137.495 60.4003L139.488 60.5597C139.543 59.8777 139.571 59.2892 139.571 58.8H137.571ZM137.492 60.44C137.466 61.0939 137.427 61.7617 137.374 62.4433L139.368 62.5967C139.423 61.8916 139.463 61.1994 139.491 60.52L137.492 60.44ZM137.372 62.4816C137.346 63.1601 137.307 63.7524 137.256 64.2605L139.246 64.4595C139.302 63.901 139.343 63.2666 139.371 62.5584L137.372 62.4816ZM137.256 64.2605C137.203 64.7941 137.164 65.1563 137.139 65.356L139.124 65.604C139.152 65.377 139.193 64.9925 139.246 64.4595L137.256 64.2605ZM138.967 66.0297L149.047 50.7097L147.376 49.6103L137.296 64.9303L138.967 66.0297ZM148.211 51.16H155.371V49.16H148.211V51.16ZM154.371 50.16V72H156.371V50.16H154.371ZM155.371 71H149.611V73H155.371V71ZM150.611 72V63.28H148.611V72H150.611ZM150.611 63.28C150.611 62.5842 150.637 61.8187 150.689 60.9824L148.693 60.8576C148.639 61.728 148.611 62.5358 148.611 63.28H150.611ZM150.69 60.9805C150.743 60.1035 150.796 59.2938 150.849 58.5512L148.854 58.4088C148.8 59.1596 148.747 59.9765 148.693 60.8595L150.69 60.9805ZM150.846 58.5829C150.926 57.8064 150.981 57.2052 151.009 56.7865L149.014 56.6535C148.988 57.0348 148.936 57.6069 148.857 58.3771L150.846 58.5829ZM149.176 56.1709L139.136 71.4509L140.807 72.5491L150.847 57.2691L149.176 56.1709ZM139.971 71H132.811V73H139.971V71ZM133.811 72V50.16H131.811V72H133.811ZM132.811 51.16H138.571V49.16H132.811V51.16ZM137.571 50.16V58.8H139.571V50.16H137.571ZM167.56 50.16H168.56V49.16H167.56V50.16ZM167.56 58.56H166.56V59.56H167.56V58.56ZM175.88 58.56V59.56H176.88V58.56H175.88ZM175.88 50.16V49.16H174.88V50.16H175.88ZM181.84 50.16H182.84V49.16H181.84V50.16ZM181.84 72V73H182.84V72H181.84ZM175.88 72H174.88V73H175.88V72ZM175.88 63H176.88V62H175.88V63ZM167.56 63V62H166.56V63H167.56ZM167.56 72V73H168.56V72H167.56ZM161.6 72H160.6V73H161.6V72ZM161.6 50.16V49.16H160.6V50.16H161.6ZM166.56 50.16V58.56H168.56V50.16H166.56ZM167.56 59.56H175.88V57.56H167.56V59.56ZM176.88 58.56V50.16H174.88V58.56H176.88ZM175.88 51.16H181.84V49.16H175.88V51.16ZM180.84 50.16V72H182.84V50.16H180.84ZM181.84 71H175.88V73H181.84V71ZM176.88 72V63H174.88V72H176.88ZM175.88 62H167.56V64H175.88V62ZM166.56 63V72H168.56V63H166.56ZM167.56 71H161.6V73H167.56V71ZM162.6 72V50.16H160.6V72H162.6ZM161.6 51.16H167.56V49.16H161.6V51.16ZM13.8227 112V113H14.8227V112H13.8227ZM7.78266 112H6.78266V113H7.78266V112ZM7.78266 88.48H8.78266V87.48H7.78266V88.48ZM0.0226563 88.48H-0.977344V89.48H0.0226563V88.48ZM0.0226563 83.44V82.44H-0.977344V83.44H0.0226563ZM21.5827 83.44H22.5827V82.44H21.5827V83.44ZM21.5827 88.48V89.48H22.5827V88.48H21.5827ZM13.8227 88.48V87.48H12.8227V88.48H13.8227ZM13.8227 111H7.78266V113H13.8227V111ZM8.78266 112V88.48H6.78266V112H8.78266ZM7.78266 87.48H0.0226563V89.48H7.78266V87.48ZM1.02266 88.48V83.44H-0.977344V88.48H1.02266ZM0.0226563 84.44H21.5827V82.44H0.0226563V84.44ZM20.5827 83.44V88.48H22.5827V83.44H20.5827ZM21.5827 87.48H13.8227V89.48H21.5827V87.48ZM12.8227 88.48V112H14.8227V88.48H12.8227ZM26.0455 112.08L25.8494 113.061L25.854 113.061L26.0455 112.08ZM23.0455 111.04H22.0455V111.65L22.5881 111.929L23.0455 111.04ZM23.0455 106.4L23.4516 105.486L22.0455 104.861V106.4H23.0455ZM26.0855 107.52L25.7981 108.478L25.8122 108.482L25.8263 108.486L26.0855 107.52ZM31.8055 107.48L32.2382 108.382L32.2526 108.375L32.2668 108.367L31.8055 107.48ZM33.4055 105.84L34.2869 106.312L34.2869 106.312L33.4055 105.84ZM34.1255 102.96L35.1232 103.028L35.196 101.96H34.1255V102.96ZM25.8855 102.96H24.8855V103.96H25.8855V102.96ZM25.8855 99V98H24.8855V99H25.8855ZM34.1255 99V100H35.1932L35.1233 98.9346L34.1255 99ZM32.9255 95.36L32.1572 96.0002L32.1634 96.0076L32.1698 96.0149L32.9255 95.36ZM27.2055 94.56L27.4762 95.5227L27.4859 95.5199L27.4955 95.517L27.2055 94.56ZM24.8455 95.4L23.9208 95.7807L24.3122 96.7313L25.2516 96.3138L24.8455 95.4ZM23.1655 91.32L22.7646 90.4038L21.8683 90.796L22.2408 91.7007L23.1655 91.32ZM26.2455 90.28L26.5031 91.2462L26.5103 91.2443L26.5174 91.2423L26.2455 90.28ZM35.3255 90.76L34.9238 91.6758L34.9238 91.6758L35.3255 90.76ZM38.9255 94.16L38.0492 94.642L38.0554 94.653L38.9255 94.16ZM39.0455 107.36L39.9455 107.796L39.9481 107.79L39.0455 107.36ZM35.4455 111.16L34.9803 110.275L34.9741 110.278L35.4455 111.16ZM29.7655 111.4C28.4282 111.4 27.2541 111.297 26.237 111.099L25.854 113.061C27.0235 113.29 28.3294 113.4 29.7655 113.4V111.4ZM26.2416 111.099C25.2625 110.904 24.3508 110.587 23.5028 110.151L22.5881 111.929C23.6068 112.453 24.6951 112.83 25.8494 113.061L26.2416 111.099ZM24.0455 111.04V106.4H22.0455V111.04H24.0455ZM22.6393 107.314C23.6402 107.759 24.6934 108.146 25.7981 108.478L26.3728 106.562C25.3442 106.254 24.3708 105.895 23.4516 105.486L22.6393 107.314ZM25.8263 108.486C27.0053 108.802 28.2124 108.96 29.4455 108.96V106.96C28.3852 106.96 27.3523 106.825 26.3446 106.554L25.8263 108.486ZM29.4455 108.96C30.4687 108.96 31.4094 108.779 32.2382 108.382L31.3727 106.578C30.8682 106.821 30.2355 106.96 29.4455 106.96V108.96ZM32.2668 108.367C33.1343 107.916 33.8044 107.213 34.2869 106.312L32.524 105.368C32.2065 105.96 31.81 106.351 31.3441 106.593L32.2668 108.367ZM34.2869 106.312C34.7746 105.402 35.037 104.291 35.1232 103.028L33.1278 102.892C33.0539 103.975 32.8364 104.785 32.524 105.368L34.2869 106.312ZM34.1255 101.96H25.8855V103.96H34.1255V101.96ZM26.8855 102.96V99H24.8855V102.96H26.8855ZM25.8855 100H34.1255V98H25.8855V100ZM35.1233 98.9346C35.0096 97.2009 34.576 95.7376 33.6812 94.7051L32.1698 96.0149C32.6616 96.5824 33.028 97.5458 33.1276 99.0654L35.1233 98.9346ZM33.6937 94.7198C32.7862 93.6308 31.4657 93.16 29.9255 93.16V95.16C31.0519 95.16 31.7314 95.4892 32.1572 96.0002L33.6937 94.7198ZM29.9255 93.16C28.8954 93.16 27.8909 93.3074 26.9155 93.603L27.4955 95.517C28.28 95.2793 29.0889 95.16 29.9255 95.16V93.16ZM26.9347 93.5973C26.0408 93.8488 25.2083 94.1444 24.4393 94.4862L25.2516 96.3138C25.9227 96.0156 26.6635 95.7512 27.4762 95.5227L26.9347 93.5973ZM25.7701 95.0192L24.0901 90.9392L22.2408 91.7007L23.9208 95.7807L25.7701 95.0192ZM23.5663 92.2362C24.3609 91.8885 25.337 91.5572 26.5031 91.2462L25.9878 89.3138C24.7539 89.6428 23.6767 90.0048 22.7646 90.4038L23.5663 92.2362ZM26.5174 91.2423C27.6482 90.9227 28.8627 90.76 30.1655 90.76V88.76C28.6949 88.76 27.2961 88.9439 25.9735 89.3177L26.5174 91.2423ZM30.1655 90.76C31.9687 90.76 33.5488 91.0727 34.9238 91.6758L35.7271 89.8442C34.0622 89.114 32.2022 88.76 30.1655 88.76V90.76ZM34.9238 91.6758C36.2218 92.2451 37.2641 93.2144 38.0493 94.6419L39.8017 93.6781C38.8268 91.9056 37.4691 90.6083 35.7271 89.8442L34.9238 91.6758ZM38.0554 94.653C38.8424 96.0418 39.2855 98.0725 39.2855 100.84H41.2855C41.2855 97.9008 40.8219 95.4782 39.7955 93.667L38.0554 94.653ZM39.2855 100.84C39.2855 103.355 38.8866 105.37 38.1429 106.93L39.9481 107.79C40.8576 105.883 41.2855 103.551 41.2855 100.84H39.2855ZM38.1455 106.924C37.4054 108.452 36.3514 109.554 34.9803 110.275L35.9106 112.045C37.6862 111.112 39.0322 109.681 39.9455 107.796L38.1455 106.924ZM34.9741 110.278C33.6072 111.009 31.8855 111.4 29.7655 111.4V113.4C32.1255 113.4 34.1904 112.965 35.9168 112.042L34.9741 110.278ZM72.7142 90.16H73.7142V89.16H72.7142V90.16ZM72.7142 112V113H73.7142V112H72.7142ZM67.1542 112H66.1542V113H67.1542V112ZM67.1942 98.16L66.1956 98.1074L66.1949 98.1206L66.1946 98.1337L67.1942 98.16ZM67.3942 95.36L68.3899 95.4533L68.4924 94.36H67.3942V95.36ZM67.2742 95.36V94.36H66.5734L66.3342 95.0188L67.2742 95.36ZM61.2342 112V113H61.9351L62.1742 112.341L61.2342 112ZM56.7542 112L55.8154 112.344L56.0559 113H56.7542V112ZM50.6342 95.32L51.573 94.9755L51.3325 94.32H50.6342V95.32ZM50.4742 95.32V94.32H49.3457L49.4815 95.4403L50.4742 95.32ZM50.6742 98.16L49.6746 98.1863L49.6749 98.2001L49.6757 98.214L50.6742 98.16ZM50.7542 112V113H51.7542V112H50.7542ZM45.1942 112H44.1942V113H45.1942V112ZM45.1942 90.16V89.16H44.1942V90.16H45.1942ZM53.6342 90.16L54.5728 89.815L54.3321 89.16H53.6342V90.16ZM59.0742 104.96L58.1356 105.305L59.0674 107.84L60.0112 105.309L59.0742 104.96ZM64.5942 90.16V89.16H63.8999L63.6573 89.8105L64.5942 90.16ZM71.7142 90.16V112H73.7142V90.16H71.7142ZM72.7142 111H67.1542V113H72.7142V111ZM68.1542 112V101.28H66.1542V112H68.1542ZM68.1542 101.28C68.1542 100.222 68.1674 99.1904 68.1939 98.1863L66.1946 98.1337C66.1677 99.1562 66.1542 100.205 66.1542 101.28H68.1542ZM68.1928 98.2126C68.2456 97.2104 68.3113 96.2909 68.3899 95.4533L66.3986 95.2667C66.3171 96.1358 66.2495 97.0829 66.1956 98.1074L68.1928 98.2126ZM67.3942 94.36H67.2742V96.36H67.3942V94.36ZM66.3342 95.0188L60.2942 111.659L62.1742 112.341L68.2142 95.7012L66.3342 95.0188ZM61.2342 111H56.7542V113H61.2342V111ZM57.693 111.656L51.573 94.9755L49.6954 95.6645L55.8154 112.344L57.693 111.656ZM50.6342 94.32H50.4742V96.32H50.6342V94.32ZM49.4815 95.4403C49.5839 96.2851 49.6486 97.2 49.6746 98.1863L51.6739 98.1337C51.6465 97.0933 51.5779 96.1149 51.467 95.1997L49.4815 95.4403ZM49.6757 98.214C49.7279 99.1794 49.7542 100.254 49.7542 101.44H51.7542C51.7542 100.226 51.7272 99.114 51.6728 98.106L49.6757 98.214ZM49.7542 101.44V112H51.7542V101.44H49.7542ZM50.7542 111H45.1942V113H50.7542V111ZM46.1942 112V90.16H44.1942V112H46.1942ZM45.1942 91.16H53.6342V89.16H45.1942V91.16ZM52.6956 90.505L58.1356 105.305L60.0128 104.615L54.5728 89.815L52.6956 90.505ZM60.0112 105.309L65.5312 90.5095L63.6573 89.8105L58.1373 104.611L60.0112 105.309ZM64.5942 91.16H72.7142V89.16H64.5942V91.16ZM98.5842 90.16H99.5842V89.16H98.5842V90.16ZM98.5842 107.64H97.5842V108.64H98.5842V107.64ZM101.784 107.64H102.784V106.64H101.784V107.64ZM101.784 119.84V120.84H102.784V119.84H101.784ZM96.4242 119.84H95.4242V120.84H96.4242V119.84ZM96.4242 112H97.4242V111H96.4242V112ZM81.7442 112V111H80.7442V112H81.7442ZM81.7442 119.84V120.84H82.7442V119.84H81.7442ZM76.3842 119.84H75.3842V120.84H76.3842V119.84ZM76.3842 107.64V106.64H75.3842V107.64H76.3842ZM78.2242 107.64V108.64H78.7648L79.0609 108.188L78.2242 107.64ZM80.6642 102.64L81.606 102.976L81.6075 102.972L80.6642 102.64ZM83.1442 90.16V89.16H82.2269L82.1479 90.0739L83.1442 90.16ZM88.1442 94.64V93.64H87.2687L87.153 94.5078L88.1442 94.64ZM87.3442 99.32L88.322 99.5295L88.3228 99.526L87.3442 99.32ZM86.1442 103.64L85.1992 103.313L85.1964 103.321L85.1937 103.329L86.1442 103.64ZM84.4642 107.64L83.5773 107.178L82.8159 108.64H84.4642V107.64ZM92.6242 107.64V108.64H93.6242V107.64H92.6242ZM92.6242 94.64H93.6242V93.64H92.6242V94.64ZM97.5842 90.16V107.64H99.5842V90.16H97.5842ZM98.5842 108.64H101.784V106.64H98.5842V108.64ZM100.784 107.64V119.84H102.784V107.64H100.784ZM101.784 118.84H96.4242V120.84H101.784V118.84ZM97.4242 119.84V112H95.4242V119.84H97.4242ZM96.4242 111H81.7442V113H96.4242V111ZM80.7442 112V119.84H82.7442V112H80.7442ZM81.7442 118.84H76.3842V120.84H81.7442V118.84ZM77.3842 119.84V107.64H75.3842V119.84H77.3842ZM76.3842 108.64H78.2242V106.64H76.3842V108.64ZM79.0609 108.188C80.0693 106.647 80.9161 104.908 81.606 102.976L79.7225 102.304C79.079 104.105 78.2991 105.7 77.3875 107.092L79.0609 108.188ZM81.6075 102.972C82.2924 101.027 82.8384 98.9638 83.2471 96.7843L81.2813 96.4157C80.89 98.5028 80.3694 100.466 79.721 102.308L81.6075 102.972ZM83.2471 96.7843C83.6532 94.6185 83.951 92.4391 84.1405 90.2461L82.1479 90.0739C81.9641 92.2009 81.6753 94.3148 81.2813 96.4157L83.2471 96.7843ZM83.1442 91.16H98.5842V89.16H83.1442V91.16ZM87.153 94.5078C86.9428 96.084 86.6803 97.6194 86.3657 99.114L88.3228 99.526C88.6481 97.9806 88.9189 96.396 89.1354 94.7722L87.153 94.5078ZM86.3664 99.1105C86.0546 100.566 85.6654 101.966 85.1992 103.313L87.0892 103.967C87.5831 102.54 87.9938 101.061 88.322 99.5295L86.3664 99.1105ZM85.1937 103.329C84.7572 104.664 84.2184 105.947 83.5773 107.178L85.3511 108.102C86.0434 106.773 86.6245 105.389 87.0947 103.951L85.1937 103.329ZM84.4642 108.64H92.6242V106.64H84.4642V108.64ZM93.6242 107.64V94.64H91.6242V107.64H93.6242ZM92.6242 93.64H88.1442V95.64H92.6242V93.64ZM106.827 112.08L106.631 113.061L106.635 113.061L106.827 112.08ZM103.827 111.04H102.827V111.65L103.369 111.929L103.827 111.04ZM103.827 106.4L104.233 105.486L102.827 104.861V106.4H103.827ZM106.867 107.52L106.579 108.478L106.593 108.482L106.608 108.486L106.867 107.52ZM112.587 107.48L113.019 108.382L113.034 108.375L113.048 108.367L112.587 107.48ZM114.187 105.84L115.068 106.312L115.068 106.312L114.187 105.84ZM114.907 102.96L115.904 103.028L115.977 101.96H114.907V102.96ZM106.667 102.96H105.667V103.96H106.667V102.96ZM106.667 99V98H105.667V99H106.667ZM114.907 99V100H115.974L115.905 98.9346L114.907 99ZM113.707 95.36L112.938 96.0002L112.945 96.0076L112.951 96.0149L113.707 95.36ZM107.987 94.56L108.257 95.5227L108.267 95.5199L108.277 95.517L107.987 94.56ZM105.627 95.4L104.702 95.7807L105.093 96.7313L106.033 96.3138L105.627 95.4ZM103.947 91.32L103.546 90.4038L102.65 90.796L103.022 91.7007L103.947 91.32ZM107.027 90.28L107.284 91.2462L107.292 91.2443L107.299 91.2423L107.027 90.28ZM116.107 90.76L115.705 91.6758L115.705 91.6758L116.107 90.76ZM119.707 94.16L118.83 94.642L118.837 94.653L119.707 94.16ZM119.827 107.36L120.727 107.796L120.729 107.79L119.827 107.36ZM116.227 111.16L115.762 110.275L115.755 110.278L116.227 111.16ZM110.547 111.4C109.209 111.4 108.035 111.297 107.018 111.099L106.635 113.061C107.805 113.29 109.111 113.4 110.547 113.4V111.4ZM107.023 111.099C106.044 110.904 105.132 110.587 104.284 110.151L103.369 111.929C104.388 112.453 105.476 112.83 106.631 113.061L107.023 111.099ZM104.827 111.04V106.4H102.827V111.04H104.827ZM103.421 107.314C104.421 107.759 105.475 108.146 106.579 108.478L107.154 106.562C106.125 106.254 105.152 105.895 104.233 105.486L103.421 107.314ZM106.608 108.486C107.787 108.802 108.994 108.96 110.227 108.96V106.96C109.166 106.96 108.134 106.825 107.126 106.554L106.608 108.486ZM110.227 108.96C111.25 108.96 112.191 108.779 113.019 108.382L112.154 106.578C111.649 106.821 111.017 106.96 110.227 106.96V108.96ZM113.048 108.367C113.916 107.916 114.586 107.213 115.068 106.312L113.305 105.368C112.988 105.96 112.591 106.351 112.125 106.593L113.048 108.367ZM115.068 106.312C115.556 105.402 115.818 104.291 115.904 103.028L113.909 102.892C113.835 103.975 113.618 104.785 113.305 105.368L115.068 106.312ZM114.907 101.96H106.667V103.96H114.907V101.96ZM107.667 102.96V99H105.667V102.96H107.667ZM106.667 100H114.907V98H106.667V100ZM115.905 98.9346C115.791 97.2009 115.357 95.7376 114.462 94.7051L112.951 96.0149C113.443 96.5824 113.809 97.5458 113.909 99.0654L115.905 98.9346ZM114.475 94.7198C113.567 93.6308 112.247 93.16 110.707 93.16V95.16C111.833 95.16 112.513 95.4892 112.938 96.0002L114.475 94.7198ZM110.707 93.16C109.677 93.16 108.672 93.3074 107.697 93.603L108.277 95.517C109.061 95.2793 109.87 95.16 110.707 95.16V93.16ZM107.716 93.5973C106.822 93.8488 105.99 94.1444 105.221 94.4862L106.033 96.3138C106.704 96.0156 107.445 95.7512 108.257 95.5227L107.716 93.5973ZM106.551 95.0192L104.871 90.9392L103.022 91.7007L104.702 95.7807L106.551 95.0192ZM104.348 92.2362C105.142 91.8885 106.118 91.5572 107.284 91.2462L106.769 89.3138C105.535 89.6428 104.458 90.0048 103.546 90.4038L104.348 92.2362ZM107.299 91.2423C108.429 90.9227 109.644 90.76 110.947 90.76V88.76C109.476 88.76 108.077 88.9439 106.755 89.3177L107.299 91.2423ZM110.947 90.76C112.75 90.76 114.33 91.0727 115.705 91.6758L116.508 89.8442C114.843 89.114 112.983 88.76 110.947 88.76V90.76ZM115.705 91.6758C117.003 92.2451 118.045 93.2144 118.831 94.6419L120.583 93.6781C119.608 91.9056 118.25 90.6083 116.508 89.8442L115.705 91.6758ZM118.837 94.653C119.624 96.0418 120.067 98.0725 120.067 100.84H122.067C122.067 97.9008 121.603 95.4782 120.577 93.667L118.837 94.653ZM120.067 100.84C120.067 103.355 119.668 105.37 118.924 106.93L120.729 107.79C121.639 105.883 122.067 103.551 122.067 100.84H120.067ZM118.927 106.924C118.187 108.452 117.133 109.554 115.762 110.275L116.692 112.045C118.467 111.112 119.813 109.681 120.727 107.796L118.927 106.924ZM115.755 110.278C114.388 111.009 112.667 111.4 110.547 111.4V113.4C112.907 113.4 114.972 112.965 116.698 112.042L115.755 110.278ZM141.055 90.16H142.055V89.16H141.055V90.16ZM141.055 94.64V95.64H142.055V94.64H141.055ZM131.935 94.64V93.64H130.935V94.64H131.935ZM131.935 112V113H132.935V112H131.935ZM125.975 112H124.975V113H125.975V112ZM125.975 90.16V89.16H124.975V90.16H125.975ZM140.055 90.16V94.64H142.055V90.16H140.055ZM141.055 93.64H131.935V95.64H141.055V93.64ZM130.935 94.64V112H132.935V94.64H130.935ZM131.935 111H125.975V113H131.935V111ZM126.975 112V90.16H124.975V112H126.975ZM125.975 91.16H141.055V89.16H125.975V91.16ZM163.426 112V113H164.426V112H163.426ZM157.466 112H156.466V113H157.466V112ZM157.466 94.64H158.466V93.64H157.466V94.64ZM151.986 94.64V93.64H151.066L150.99 94.557L151.986 94.64ZM150.986 102.84L150.001 102.666L150 102.676L150.986 102.84ZM149.546 108.32L148.623 107.937L148.619 107.944L148.616 107.952L149.546 108.32ZM147.386 111.44L147.974 112.249L147.982 112.243L147.99 112.237L147.386 111.44ZM142.266 112.24L142.453 111.258L142.453 111.258L142.266 112.24ZM140.746 111.76H139.746V112.395L140.32 112.665L140.746 111.76ZM140.746 107L141.088 106.06L139.746 105.572V107H140.746ZM141.666 107.28L141.909 106.31L141.909 106.31L141.666 107.28ZM143.706 106.96L143.06 106.197L143.045 106.209L143.03 106.223L143.706 106.96ZM144.666 105.4L143.747 105.006L143.741 105.02L143.735 105.034L144.666 105.4ZM145.546 102.32L144.566 102.12L144.566 102.12L145.546 102.32ZM146.266 97.4L145.273 97.2808L145.272 97.2925L146.266 97.4ZM146.906 90.16V89.16H145.97L145.908 90.0941L146.906 90.16ZM163.426 90.16H164.426V89.16H163.426V90.16ZM163.426 111H157.466V113H163.426V111ZM158.466 112V94.64H156.466V112H158.466ZM157.466 93.64H151.986V95.64H157.466V93.64ZM150.99 94.557C150.725 97.7374 150.394 100.439 150.001 102.666L151.971 103.014C152.378 100.708 152.714 97.9426 152.983 94.723L150.99 94.557ZM150 102.676C149.633 104.873 149.17 106.619 148.623 107.937L150.47 108.703C151.096 107.195 151.592 105.287 151.972 103.004L150 102.676ZM148.616 107.952C148.099 109.256 147.471 110.121 146.782 110.643L147.99 112.237C149.061 111.426 149.873 110.21 150.476 108.688L148.616 107.952ZM146.798 110.631C146.117 111.126 145.253 111.4 144.146 111.4V113.4C145.599 113.4 146.895 113.034 147.974 112.249L146.798 110.631ZM144.146 111.4C143.503 111.4 142.94 111.35 142.453 111.258L142.079 113.222C142.712 113.343 143.403 113.4 144.146 113.4V111.4ZM142.453 111.258C141.965 111.165 141.54 111.028 141.172 110.855L140.32 112.665C140.859 112.918 141.448 113.102 142.079 113.222L142.453 111.258ZM141.746 111.76V107H139.746V111.76H141.746ZM140.404 107.94C140.732 108.059 141.072 108.162 141.424 108.25L141.909 106.31C141.62 106.238 141.347 106.154 141.088 106.06L140.404 107.94ZM141.424 108.25C141.827 108.351 142.242 108.4 142.666 108.4V106.4C142.397 106.4 142.145 106.369 141.909 106.31L141.424 108.25ZM142.666 108.4C143.33 108.4 143.909 108.13 144.382 107.697L143.03 106.223C142.863 106.376 142.749 106.4 142.666 106.4V108.4ZM144.352 107.723C144.888 107.27 145.283 106.565 145.597 105.766L143.735 105.034C143.463 105.728 143.217 106.064 143.06 106.197L144.352 107.723ZM145.585 105.794C145.943 104.958 146.253 103.857 146.526 102.52L144.566 102.12C144.306 103.397 144.029 104.349 143.747 105.006L145.585 105.794ZM146.526 102.52C146.801 101.172 147.045 99.4985 147.26 97.5075L145.272 97.2925C145.06 99.2482 144.825 100.855 144.566 102.12L146.526 102.52ZM147.259 97.5191C147.502 95.496 147.717 93.0638 147.904 90.2259L145.908 90.0941C145.722 92.9095 145.51 95.304 145.273 97.2809L147.259 97.5191ZM146.906 91.16H163.426V89.16H146.906V91.16ZM162.426 90.16V112H164.426V90.16H162.426ZM170.967 112.08L170.771 113.061L170.776 113.061L170.967 112.08ZM167.967 111.04H166.967V111.65L167.51 111.929L167.967 111.04ZM167.967 106.4L168.373 105.486L166.967 104.861V106.4H167.967ZM171.007 107.52L170.72 108.478L170.734 108.482L170.748 108.486L171.007 107.52ZM176.727 107.48L177.16 108.382L177.175 108.375L177.189 108.367L176.727 107.48ZM178.327 105.84L179.209 106.312L179.209 106.312L178.327 105.84ZM179.047 102.96L180.045 103.028L180.118 101.96H179.047V102.96ZM170.807 102.96H169.807V103.96H170.807V102.96ZM170.807 99V98H169.807V99H170.807ZM179.047 99V100H180.115L180.045 98.9346L179.047 99ZM177.847 95.36L177.079 96.0002L177.085 96.0076L177.092 96.0149L177.847 95.36ZM172.127 94.56L172.398 95.5227L172.408 95.5199L172.417 95.517L172.127 94.56ZM169.767 95.4L168.843 95.7807L169.234 96.7313L170.173 96.3138L169.767 95.4ZM168.087 91.32L167.687 90.4038L166.79 90.796L167.163 91.7007L168.087 91.32ZM171.167 90.28L171.425 91.2462L171.432 91.2443L171.439 91.2423L171.167 90.28ZM180.247 90.76L179.846 91.6758L179.846 91.6758L180.247 90.76ZM183.847 94.16L182.971 94.642L182.977 94.653L183.847 94.16ZM183.967 107.36L184.867 107.796L184.87 107.79L183.967 107.36ZM180.367 111.16L179.902 110.275L179.896 110.278L180.367 111.16ZM174.687 111.4C173.35 111.4 172.176 111.297 171.159 111.099L170.776 113.061C171.945 113.29 173.251 113.4 174.687 113.4V111.4ZM171.163 111.099C170.184 110.904 169.273 110.587 168.425 110.151L167.51 111.929C168.529 112.453 169.617 112.83 170.771 113.061L171.163 111.099ZM168.967 111.04V106.4H166.967V111.04H168.967ZM167.561 107.314C168.562 107.759 169.615 108.146 170.72 108.478L171.295 106.562C170.266 106.254 169.293 105.895 168.373 105.486L167.561 107.314ZM170.748 108.486C171.927 108.802 173.134 108.96 174.367 108.96V106.96C173.307 106.96 172.274 106.825 171.266 106.554L170.748 108.486ZM174.367 108.96C175.391 108.96 176.331 108.779 177.16 108.382L176.295 106.578C175.79 106.821 175.157 106.96 174.367 106.96V108.96ZM177.189 108.367C178.056 107.916 178.726 107.213 179.209 106.312L177.446 105.368C177.128 105.96 176.732 106.351 176.266 106.593L177.189 108.367ZM179.209 106.312C179.696 105.402 179.959 104.291 180.045 103.028L178.05 102.892C177.976 103.975 177.758 104.785 177.446 105.368L179.209 106.312ZM179.047 101.96H170.807V103.96H179.047V101.96ZM171.807 102.96V99H169.807V102.96H171.807ZM170.807 100H179.047V98H170.807V100ZM180.045 98.9346C179.932 97.2009 179.498 95.7376 178.603 94.7051L177.092 96.0149C177.583 96.5824 177.95 97.5458 178.049 99.0654L180.045 98.9346ZM178.616 94.7198C177.708 93.6308 176.388 93.16 174.847 93.16V95.16C175.974 95.16 176.653 95.4892 177.079 96.0002L178.616 94.7198ZM174.847 93.16C173.817 93.16 172.813 93.3074 171.837 93.603L172.417 95.517C173.202 95.2793 174.011 95.16 174.847 95.16V93.16ZM171.857 93.5973C170.963 93.8488 170.13 94.1444 169.361 94.4862L170.173 96.3138C170.845 96.0156 171.585 95.7512 172.398 95.5227L171.857 93.5973ZM170.692 95.0192L169.012 90.9392L167.163 91.7007L168.843 95.7807L170.692 95.0192ZM168.488 92.2362C169.283 91.8885 170.259 91.5572 171.425 91.2462L170.91 89.3138C169.676 89.6428 168.599 90.0048 167.687 90.4038L168.488 92.2362ZM171.439 91.2423C172.57 90.9227 173.785 90.76 175.087 90.76V88.76C173.617 88.76 172.218 88.9439 170.895 89.3177L171.439 91.2423ZM175.087 90.76C176.891 90.76 178.471 91.0727 179.846 91.6758L180.649 89.8442C178.984 89.114 177.124 88.76 175.087 88.76V90.76ZM179.846 91.6758C181.144 92.2451 182.186 93.2144 182.971 94.6419L184.724 93.6781C183.749 91.9056 182.391 90.6083 180.649 89.8442L179.846 91.6758ZM182.977 94.653C183.764 96.0418 184.207 98.0725 184.207 100.84H186.207C186.207 97.9008 185.744 95.4782 184.717 93.667L182.977 94.653ZM184.207 100.84C184.207 103.355 183.809 105.37 183.065 106.93L184.87 107.79C185.78 105.883 186.207 103.551 186.207 100.84H184.207ZM183.067 106.924C182.327 108.452 181.273 109.554 179.902 110.275L180.832 112.045C182.608 111.112 183.954 109.681 184.867 107.796L183.067 106.924ZM179.896 110.278C178.529 111.009 176.807 111.4 174.687 111.4V113.4C177.047 113.4 179.112 112.965 180.839 112.042L179.896 110.278ZM209.676 112V113H210.676V112H209.676ZM203.716 112H202.716V113H203.716V112ZM203.716 94.64H204.716V93.64H203.716V94.64ZM198.236 94.64V93.64H197.316L197.24 94.557L198.236 94.64ZM197.236 102.84L196.251 102.666L196.25 102.676L197.236 102.84ZM195.796 108.32L194.873 107.937L194.869 107.944L194.866 107.952L195.796 108.32ZM193.636 111.44L194.224 112.249L194.232 112.243L194.24 112.237L193.636 111.44ZM188.516 112.24L188.703 111.258L188.703 111.258L188.516 112.24ZM186.996 111.76H185.996V112.395L186.57 112.665L186.996 111.76ZM186.996 107L187.338 106.06L185.996 105.572V107H186.996ZM187.916 107.28L188.159 106.31L188.159 106.31L187.916 107.28ZM189.956 106.96L189.31 106.197L189.295 106.209L189.28 106.223L189.956 106.96ZM190.916 105.4L189.997 105.006L189.991 105.02L189.985 105.034L190.916 105.4ZM191.796 102.32L190.816 102.12L190.816 102.12L191.796 102.32ZM192.516 97.4L191.523 97.2808L191.522 97.2925L192.516 97.4ZM193.156 90.16V89.16H192.22L192.158 90.0941L193.156 90.16ZM209.676 90.16H210.676V89.16H209.676V90.16ZM209.676 111H203.716V113H209.676V111ZM204.716 112V94.64H202.716V112H204.716ZM203.716 93.64H198.236V95.64H203.716V93.64ZM197.24 94.557C196.975 97.7374 196.644 100.439 196.251 102.666L198.221 103.014C198.628 100.708 198.964 97.9426 199.233 94.723L197.24 94.557ZM196.25 102.676C195.883 104.873 195.42 106.619 194.873 107.937L196.72 108.703C197.346 107.195 197.842 105.287 198.222 103.004L196.25 102.676ZM194.866 107.952C194.349 109.256 193.721 110.121 193.032 110.643L194.24 112.237C195.311 111.426 196.123 110.21 196.726 108.688L194.866 107.952ZM193.048 110.631C192.367 111.126 191.503 111.4 190.396 111.4V113.4C191.849 113.4 193.145 113.034 194.224 112.249L193.048 110.631ZM190.396 111.4C189.753 111.4 189.19 111.35 188.703 111.258L188.329 113.222C188.962 113.343 189.653 113.4 190.396 113.4V111.4ZM188.703 111.258C188.215 111.165 187.79 111.028 187.422 110.855L186.57 112.665C187.109 112.918 187.698 113.102 188.329 113.222L188.703 111.258ZM187.996 111.76V107H185.996V111.76H187.996ZM186.654 107.94C186.982 108.059 187.322 108.162 187.674 108.25L188.159 106.31C187.87 106.238 187.597 106.154 187.338 106.06L186.654 107.94ZM187.674 108.25C188.077 108.351 188.492 108.4 188.916 108.4V106.4C188.647 106.4 188.395 106.369 188.159 106.31L187.674 108.25ZM188.916 108.4C189.58 108.4 190.159 108.13 190.632 107.697L189.28 106.223C189.113 106.376 188.999 106.4 188.916 106.4V108.4ZM190.602 107.723C191.138 107.27 191.533 106.565 191.847 105.766L189.985 105.034C189.713 105.728 189.467 106.064 189.31 106.197L190.602 107.723ZM191.835 105.794C192.193 104.958 192.503 103.857 192.776 102.52L190.816 102.12C190.556 103.397 190.279 104.349 189.997 105.006L191.835 105.794ZM192.776 102.52C193.051 101.172 193.295 99.4985 193.51 97.5075L191.522 97.2925C191.31 99.2482 191.075 100.855 190.816 102.12L192.776 102.52ZM193.509 97.5191C193.752 95.496 193.967 93.0638 194.154 90.2259L192.158 90.0941C191.972 92.9095 191.76 95.304 191.523 97.2809L193.509 97.5191ZM193.156 91.16H209.676V89.16H193.156V91.16ZM208.676 90.16V112H210.676V90.16H208.676Z" fill="black" mask="url(#path-1-outside-1_1_2)"/>
</svg>
